<svg width="19" height="19" viewBox="0 0 19 19" fill="none" xmlns="http://www.w3.org/2000/svg">
<path d="M1.89998 1.89998V6.83998C1.89855 6.94069 1.91716 7.04067 1.95471 7.13413C1.99227 7.22759 2.04802 7.31265 2.11874 7.38437C2.18945 7.45609 2.27371 7.51304 2.36663 7.55191C2.45954 7.59078 2.55926 7.6108 2.65998 7.6108C2.7607 7.6108 2.86041 7.59078 2.95333 7.55191C3.04624 7.51304 3.13051 7.45609 3.20122 7.38437C3.27193 7.31265 3.32769 7.22759 3.36524 7.13413C3.4028 7.04067 3.4214 6.94069 3.41998 6.83998V4.49467L7.63263 8.70732C7.70266 8.78026 7.78655 8.8385 7.87936 8.87861C7.97218 8.91873 8.07207 8.93992 8.17318 8.94095C8.27429 8.94198 8.37459 8.92283 8.46821 8.88461C8.56182 8.84639 8.64687 8.78987 8.71837 8.71837C8.78987 8.64687 8.84639 8.56182 8.88461 8.46821C8.92283 8.37459 8.94198 8.27429 8.94095 8.17318C8.93992 8.07207 8.91873 7.97218 8.87861 7.87936C8.8385 7.78655 8.78026 7.70266 8.70732 7.63263L4.49467 3.41998H6.83998C6.94069 3.4214 7.04067 3.4028 7.13413 3.36524C7.22759 3.32769 7.31265 3.27193 7.38437 3.20122C7.45609 3.13051 7.51304 3.04624 7.55191 2.95333C7.59078 2.86041 7.6108 2.7607 7.6108 2.65998C7.6108 2.55926 7.59078 2.45954 7.55191 2.36663C7.51304 2.27371 7.45609 2.18945 7.38437 2.11874C7.31265 2.04802 7.22759 1.99227 7.13413 1.95471C7.04067 1.91716 6.94069 1.89855 6.83998 1.89998H1.89998ZM12.16 1.89998C12.0593 1.89855 11.9593 1.91716 11.8658 1.95471C11.7724 1.99227 11.6873 2.04802 11.6156 2.11874C11.5439 2.18945 11.4869 2.27371 11.448 2.36663C11.4092 2.45954 11.3892 2.55926 11.3892 2.65998C11.3892 2.7607 11.4092 2.86041 11.448 2.95333C11.4869 3.04624 11.5439 3.13051 11.6156 3.20122C11.6873 3.27193 11.7724 3.32769 11.8658 3.36524C11.9593 3.4028 12.0593 3.4214 12.16 3.41998H14.4734L10.2904 7.63486C10.2178 7.7052 10.16 7.78932 10.1203 7.88229C10.0806 7.97527 10.0598 8.07522 10.0593 8.17631C10.0587 8.27739 10.0783 8.37758 10.1169 8.471C10.1555 8.56443 10.2123 8.64922 10.2841 8.7204C10.3559 8.79158 10.4411 8.84773 10.5349 8.88556C10.6286 8.9234 10.729 8.94215 10.83 8.94072C10.9311 8.9393 11.0309 8.91772 11.1235 8.87726C11.2162 8.83681 11.2998 8.77827 11.3695 8.70509L15.58 4.46275V6.83998C15.5786 6.94069 15.5972 7.04067 15.6347 7.13413C15.6723 7.22759 15.728 7.31265 15.7987 7.38437C15.8694 7.45609 15.9537 7.51304 16.0466 7.55191C16.1395 7.59078 16.2393 7.6108 16.34 7.6108C16.4407 7.6108 16.5404 7.59078 16.6333 7.55191C16.7262 7.51304 16.8105 7.45609 16.8812 7.38437C16.9519 7.31265 17.0077 7.22759 17.0452 7.13413C17.0828 7.04067 17.1014 6.94069 17.1 6.83998V1.89998H12.16ZM8.1581 10.0626C7.96071 10.0677 7.77306 10.1494 7.63486 10.2904L3.41998 14.4734V12.16C3.4214 12.0593 3.4028 11.9593 3.36524 11.8658C3.32769 11.7724 3.27193 11.6873 3.20122 11.6156C3.13051 11.5439 3.04624 11.4869 2.95333 11.448C2.86041 11.4092 2.7607 11.3892 2.65998 11.3892C2.55926 11.3892 2.45954 11.4092 2.36663 11.448C2.27371 11.4869 2.18945 11.5439 2.11874 11.6156C2.04802 11.6873 1.99227 11.7724 1.95471 11.8658C1.91716 11.9593 1.89855 12.0593 1.89998 12.16V17.1H6.83998C6.94069 17.1014 7.04067 17.0828 7.13413 17.0452C7.22759 17.0077 7.31265 16.9519 7.38437 16.8812C7.45609 16.8105 7.51304 16.7262 7.55191 16.6333C7.59078 16.5404 7.6108 16.4407 7.6108 16.34C7.6108 16.2393 7.59078 16.1395 7.55191 16.0466C7.51304 15.9537 7.45609 15.8694 7.38437 15.7987C7.31265 15.728 7.22759 15.6723 7.13413 15.6347C7.04067 15.5972 6.94069 15.5786 6.83998 15.58H4.46275L8.70509 11.3695C8.81536 11.2632 8.89092 11.1261 8.9219 10.9761C8.95287 10.8261 8.93781 10.6702 8.87868 10.5289C8.81954 10.3877 8.71911 10.2675 8.59052 10.1843C8.46194 10.1011 8.31122 10.0586 8.1581 10.0626ZM10.8218 10.0626C10.6707 10.0627 10.523 10.108 10.3978 10.1925C10.2725 10.277 10.1752 10.3969 10.1184 10.537C10.0616 10.677 10.0478 10.8308 10.0789 10.9787C10.1099 11.1266 10.1843 11.2619 10.2926 11.3673L14.5053 15.58H12.16C12.0593 15.5786 11.9593 15.5972 11.8658 15.6347C11.7724 15.6723 11.6873 15.728 11.6156 15.7987C11.5439 15.8694 11.4869 15.9537 11.448 16.0466C11.4092 16.1395 11.3892 16.2393 11.3892 16.34C11.3892 16.4407 11.4092 16.5404 11.448 16.6333C11.4869 16.7262 11.5439 16.8105 11.6156 16.8812C11.6873 16.9519 11.7724 17.0077 11.8658 17.0452C11.9593 17.0828 12.0593 17.1014 12.16 17.1H17.1V12.16C17.1014 12.0593 17.0828 11.9593 17.0452 11.8658C17.0077 11.7724 16.9519 11.6873 16.8812 11.6156C16.8105 11.5439 16.7262 11.4869 16.6333 11.448C16.5404 11.4092 16.4407 11.3892 16.34 11.3892C16.2393 11.3892 16.1395 11.4092 16.0466 11.448C15.9537 11.4869 15.8694 11.5439 15.7987 11.6156C15.728 11.6873 15.6723 11.7724 15.6347 11.8658C15.5972 11.9593 15.5786 12.0593 15.58 12.16V14.5053L11.3673 10.2926C11.2964 10.2197 11.2116 10.1618 11.1179 10.1223C11.0242 10.0828 10.9235 10.0625 10.8218 10.0626Z" fill="white"/>
</svg>
