<svg width="50" height="50" viewBox="0 0 50 50" fill="none" xmlns="http://www.w3.org/2000/svg">
<path d="M24.9999 12C11.67 12 1.24012 24.3496 1.24012 24.3496C1.08501 24.5308 0.999756 24.7615 0.999756 25C0.999756 25.2385 1.08501 25.4692 1.24012 25.6504C1.24012 25.6504 11.67 38 24.9999 38C38.3298 38 48.7597 25.6504 48.7597 25.6504C48.9148 25.4692 49 25.2385 49 25C49 24.7615 48.9148 24.5308 48.7597 24.3496C48.7597 24.3496 38.3298 12 24.9999 12ZM24.9999 14C27.666 14 30.2121 14.5532 32.5682 15.4043C34.1399 17.2083 34.9999 19.3937 34.9999 22C34.9999 27.5645 30.5644 32 24.9999 32C19.4354 32 14.9999 27.5645 14.9999 22C14.9999 19.5297 15.9534 17.2156 17.4432 15.4004C19.7962 14.5516 22.3381 14 24.9999 14ZM14.1932 16.8105C13.442 18.3924 12.9999 20.1508 12.9999 22C12.9999 28.6355 18.3644 34 24.9999 34C31.6354 34 36.9999 28.6355 36.9999 22C36.9999 20.1338 36.5998 18.4007 35.869 16.8418C41.5283 19.7196 45.5866 23.8972 46.6054 25C45.011 26.7259 35.992 36 24.9999 36C14.0077 36 4.98877 26.7259 3.39442 25C4.41688 23.8931 8.50158 19.6892 14.1932 16.8105ZM24.9999 17C23.6738 17 22.402 17.5268 21.4644 18.4645C20.5267 19.4021 19.9999 20.6739 19.9999 22C19.9999 23.3261 20.5267 24.5979 21.4644 25.5355C22.402 26.4732 23.6738 27 24.9999 27C26.326 27 27.5977 26.4732 28.5354 25.5355C29.4731 24.5979 29.9999 23.3261 29.9999 22C29.9999 20.6739 29.4731 19.4021 28.5354 18.4645C27.5977 17.5268 26.326 17 24.9999 17Z" fill="white"/>
</svg>
