<svg width="21" height="21" viewBox="0 0 21 21" fill="none" xmlns="http://www.w3.org/2000/svg">
<path d="M11.3006 2.09998C7.57641 2.09998 6.19336 4.97763 7.25812 7.4156C7.12523 7.50419 6.91195 7.78146 6.95625 8.26873C7.04484 9.15466 7.44352 9.3663 7.665 9.4106C7.75359 10.2522 8.2868 11.2333 8.59688 11.3662C8.59688 11.9421 8.58867 12.4244 8.54437 13.0462C7.86516 14.8296 3.52406 14.4161 2.96625 17.6137C2.94164 17.7532 3.08602 18.06 3.37312 18.06H17.64C18.0666 18.06 18.0584 17.745 18.0337 17.6006C17.4661 14.4161 13.1348 14.8279 12.4556 13.0462C12.4113 12.3801 12.4031 11.9421 12.4031 11.3662C12.7132 11.2333 13.207 10.2079 13.2956 9.4106C13.5171 9.4106 13.8715 9.14318 14.0044 8.2556C14.0487 7.76833 13.8666 7.4599 13.6894 7.4156C14.3981 6.52966 14.2702 2.9006 11.655 2.9006L11.3006 2.09998ZM6.36562 4.19998C3.5618 4.24755 2.33297 6.4788 3.17625 8.38685C3.08602 8.43115 2.90883 8.66576 2.95312 9.06935C3.04336 9.78794 3.31078 9.96185 3.49125 9.96185C3.57984 10.6345 3.97687 11.3892 4.2 11.5237C4.2 11.9716 4.20492 11.9585 4.16062 12.495C3.79641 13.6434 0 13.5581 0 16.38C0 16.38 0 16.8 0.42 16.8H2.32312C2.96461 14.9854 4.70859 14.2865 6.02437 13.7681C6.74953 13.4826 7.49273 13.1939 7.7175 12.8362C7.74211 12.4458 7.75523 12.1144 7.75687 11.7469C7.3582 11.2908 7.06125 10.5804 6.91687 9.97498C6.57562 9.72232 6.20648 9.23669 6.11625 8.33435C6.07687 7.90615 6.16711 7.55013 6.31312 7.27123C5.98008 6.23599 6.00141 5.15482 6.36562 4.19998ZM15.96 4.19998C15.558 4.19998 15.0839 4.23279 14.6344 4.30498C14.9707 5.29099 14.9838 6.46896 14.6869 7.3106C14.8181 7.59935 14.8788 7.95044 14.8444 8.33435L14.8312 8.3606V8.38685C14.7066 9.21208 14.403 9.71412 14.0437 9.9881C13.9076 10.5558 13.6303 11.2727 13.2431 11.7337C13.2448 12.0947 13.2579 12.4195 13.2825 12.8362C13.5073 13.1939 14.2521 13.4826 14.9756 13.7681C16.2898 14.2849 18.0337 14.9854 18.6769 16.8H20.58C21 16.8 21 16.3931 21 16.3931C21.0016 13.1447 17.4054 13.9141 16.8656 12.4293C16.8197 11.9339 16.8131 11.9798 16.8131 11.4844C17.0379 11.3498 17.4513 10.5935 17.4956 9.96185C17.6761 9.96185 17.9435 9.77646 18.0337 9.05623C18.078 8.69693 17.9452 8.43115 17.8106 8.38685C18.352 7.66662 18.2634 4.82998 16.2356 4.82998L15.96 4.19998Z" fill="white"/>
</svg>
