<svg width="21" height="21" viewBox="0 0 21 21" fill="none" xmlns="http://www.w3.org/2000/svg">
<path d="M10.0801 0.971252L1.12884 4.23938C0.961494 4.28203 0.840088 4.45266 0.840088 4.62V15.6188L10.0801 12.3113V0.971252ZM10.9201 0.971252V12.3113L13.4401 13.1906V6.12938L17.2201 7.52063V14.5294L20.1601 15.5794V4.62C20.1601 4.45266 20.0387 4.28203 19.8713 4.23938L10.9201 0.971252ZM7.56009 5.88V10.1194L3.78009 11.5894V7.38938L7.56009 5.88ZM10.5001 13.0594L1.18134 16.38L10.3688 20.1206C10.4115 20.1206 10.4558 20.16 10.5395 20.16C10.5821 20.16 10.6674 20.1633 10.7101 20.1206L19.8188 16.38L10.5001 13.0594Z" fill="white"/>
</svg>
