<?xml version="1.0" standalone="no"?>
<!DOCTYPE svg PUBLIC "-//W3C//DTD SVG 20010904//EN"
 "http://www.w3.org/TR/2001/REC-SVG-20010904/DTD/svg10.dtd">
<svg version="1.0" xmlns="http://www.w3.org/2000/svg"
 width="700.000000pt" height="700.000000pt" viewBox="0 0 700.000000 700.000000"
 preserveAspectRatio="xMidYMid meet">
<metadata>
Created by potrace 1.14, written by Peter Selinger 2001-2017
</metadata>
<g transform="translate(0.000000,700.000000) scale(0.100000,-0.100000)"
fill="#000000" stroke="none">
<path d="M4585 6860 c-22 -4 -61 -11 -87 -14 -26 -4 -53 -9 -60 -11 -7 -2 -25
-6 -40 -9 -51 -9 -234 -75 -318 -116 -144 -70 -274 -164 -401 -289 -280 -275
-432 -603 -464 -996 -7 -78 -8 -81 -88 -205 -184 -285 -575 -862 -680 -1004
-9 -12 -70 -97 -137 -190 -68 -93 -126 -174 -131 -180 -10 -12 -263 -344 -294
-385 -23 -31 -137 -174 -145 -181 -3 -3 -25 -30 -50 -60 -59 -73 -276 -323
-331 -381 -24 -26 -79 -84 -123 -130 -106 -112 -127 -169 -101 -269 21 -79 44
-112 163 -232 l115 -117 -136 -136 c-231 -231 -307 -334 -376 -512 -138 -355
-47 -755 233 -1021 194 -184 399 -269 666 -277 241 -8 423 48 630 193 40 28
461 441 1095 1073 567 566 1057 1049 1090 1074 307 229 678 195 939 -86 73
-79 144 -210 166 -306 24 -104 16 -244 -19 -345 -58 -168 -102 -220 -638 -758
-265 -267 -490 -495 -498 -507 -22 -32 -21 -105 1 -145 22 -37 90 -77 126 -73
13 1 34 3 48 4 19 1 139 116 490 469 542 547 553 558 621 662 61 92 97 168
129 267 39 121 49 193 46 318 -16 516 -458 936 -988 937 -106 0 -260 -26 -310
-53 -10 -5 -23 -9 -29 -9 -36 0 -241 -119 -319 -185 -19 -16 -494 -487 -1055
-1047 -561 -560 -1045 -1036 -1075 -1058 -170 -126 -394 -175 -575 -126 -5 2
-23 6 -40 11 -16 4 -57 21 -90 38 -361 178 -508 553 -351 892 51 109 114 189
281 354 140 139 146 143 163 125 53 -58 151 -139 188 -154 99 -43 182 -34 256
25 36 30 171 152 243 220 25 24 148 131 189 166 16 13 34 29 40 34 30 28 341
279 416 336 47 35 87 67 90 70 4 5 173 131 369 276 258 192 774 548 1162 803
l197 129 72 5 c541 39 1026 356 1274 836 50 97 118 277 130 343 3 15 7 35 10
45 28 91 41 384 24 502 -4 25 -10 65 -13 90 -17 117 -80 304 -147 433 -232
448 -672 761 -1168 832 -68 10 -340 13 -385 5z m400 -311 c392 -74 718 -317
895 -669 37 -74 96 -244 104 -300 3 -25 9 -56 12 -70 14 -54 13 -316 -1 -393
-18 -100 -59 -234 -97 -317 -34 -75 -116 -210 -127 -210 -5 0 -401 392 -880
871 l-871 872 32 20 c66 42 94 58 160 91 65 33 191 80 242 91 14 3 38 8 54 11
130 28 338 29 477 3z m104 -1700 l485 -482 -30 -24 c-47 -40 -154 -108 -224
-143 -64 -33 -206 -85 -251 -94 -13 -2 -35 -7 -49 -10 -68 -16 -96 -19 -235
-22 -83 -1 -169 1 -190 6 -22 5 -60 12 -84 15 -60 9 -191 51 -269 86 -247 111
-460 312 -587 552 -46 88 -109 257 -119 322 -3 22 -9 60 -14 85 -9 60 -9 300
1 373 25 179 106 375 225 540 l56 78 400 -400 c221 -220 619 -617 885 -882z
m-1800 -1 c144 -462 523 -844 986 -997 l84 -28 -236 -159 c-458 -308 -929
-644 -1213 -862 -286 -221 -513 -406 -700 -572 -104 -92 -121 -108 -202 -187
l-77 -75 -256 257 c-140 142 -255 261 -255 264 0 4 28 36 63 72 174 181 385
424 567 654 52 66 97 122 100 125 4 3 35 43 70 90 35 47 68 90 73 95 117 140
647 889 885 1252 48 73 88 133 89 133 1 0 11 -28 22 -62z"/>
<path d="M3197 3976 c-20 -8 -45 -20 -54 -27 -45 -36 -410 -414 -422 -437 -48
-90 19 -218 127 -243 80 -18 100 -4 331 224 131 131 220 227 231 250 59 128
-79 279 -213 233z"/>
</g>
</svg>
