<svg width="28" height="28" viewBox="0 0 28 28" fill="none" xmlns="http://www.w3.org/2000/svg">
<path d="M6.72012 0C6.42767 0 6.12954 0.107144 5.9184 0.318281C5.70726 0.529418 5.60012 0.827556 5.60012 1.12V2.24H2.24012C1.94767 2.24 1.64954 2.34714 1.4384 2.55828C1.22726 2.76942 1.12012 3.06756 1.12012 3.36V7.84V25.76C1.12012 26.0524 1.22726 26.3506 1.4384 26.5617C1.64954 26.7729 1.94767 26.88 2.24012 26.88H25.7601C26.0526 26.88 26.3507 26.7729 26.5618 26.5617C26.773 26.3506 26.8801 26.0524 26.8801 25.76V7.84V3.36C26.8801 3.06756 26.773 2.76942 26.5618 2.55828C26.3507 2.34714 26.0526 2.24 25.7601 2.24H22.4001V1.12C22.4001 0.827556 22.293 0.529418 22.0818 0.318281C21.8707 0.107144 21.5726 0 21.2801 0H20.1601C19.8677 0 19.5695 0.107144 19.3584 0.318281C19.1473 0.529418 19.0401 0.827556 19.0401 1.12V2.24H8.96012V1.12C8.96012 0.827556 8.85297 0.529418 8.64184 0.318281C8.4307 0.107144 8.13256 0 7.84012 0H6.72012ZM6.72012 1.12H7.84012V4.48H6.72012V1.12ZM20.1601 1.12H21.2801V2.70594C21.2701 2.76641 21.2701 2.82812 21.2801 2.88859V4.48H20.1601V1.12ZM2.24012 3.36H5.60012V4.48C5.60012 4.77244 5.70726 5.07058 5.9184 5.28172C6.12954 5.49286 6.42767 5.6 6.72012 5.6H7.84012C8.13256 5.6 8.4307 5.49286 8.64184 5.28172C8.85297 5.07058 8.96012 4.77244 8.96012 4.48V3.36H19.0401V4.48C19.0401 4.77244 19.1473 5.07058 19.3584 5.28172C19.5695 5.49286 19.8677 5.6 20.1601 5.6H21.2801C21.5726 5.6 21.8707 5.49286 22.0818 5.28172C22.293 5.07058 22.4001 4.77244 22.4001 4.48V3.36H25.7601V7.28H2.24012V3.36ZM2.24012 8.4H25.7601V25.76H2.24012V8.4ZM10.0714 10.6323C10.0446 10.633 10.0179 10.6355 9.99152 10.64H6.16012C6.0116 10.64 5.86917 10.699 5.76415 10.804C5.65914 10.9091 5.60013 11.0515 5.60012 11.2V15.0259C5.59012 15.0864 5.59012 15.1481 5.60012 15.2086V18.9459C5.59012 19.0064 5.59012 19.0681 5.60012 19.1286V22.96C5.60013 23.1085 5.65914 23.2509 5.76415 23.356C5.86917 23.461 6.0116 23.52 6.16012 23.52H9.98605C10.0465 23.53 10.1082 23.53 10.1687 23.52H13.9061C13.9665 23.53 14.0282 23.53 14.0887 23.52H16.8001H17.8261C17.8865 23.53 17.9482 23.53 18.0087 23.52H21.8401C21.9886 23.52 22.1311 23.461 22.2361 23.356C22.3411 23.2509 22.4001 23.1085 22.4001 22.96V19.1341C22.4101 19.0736 22.4101 19.0119 22.4001 18.9514V15.2141C22.4101 15.1536 22.4101 15.0919 22.4001 15.0314V11.2C22.4001 11.0515 22.3411 10.9091 22.2361 10.804C22.1311 10.699 21.9886 10.64 21.8401 10.64H18.0142C17.9537 10.63 17.892 10.63 17.8315 10.64H14.0942C14.0337 10.63 13.972 10.63 13.9115 10.64H10.1742C10.1402 10.6343 10.1058 10.6317 10.0714 10.6323V10.6323ZM6.72012 11.76H9.52012V14.56H6.72012V11.76ZM10.6401 11.76H13.4401V14.56H10.6401V11.76ZM14.5601 11.76H17.3601V14.56H14.5601V11.76ZM18.4801 11.76H21.2801V14.56H18.4801V11.76ZM6.72012 15.68H9.52012V18.48H6.72012V15.68ZM10.6401 15.68H13.4401V18.48H10.6401V15.68ZM14.5601 15.68H17.3601V18.48H14.5601V15.68ZM18.4801 15.68H21.2801V18.48H18.4801V15.68ZM6.72012 19.6H9.52012V22.4H6.72012V19.6ZM10.6401 19.6H13.4401V22.4H10.6401V19.6ZM14.5601 19.6H17.3601V22.4H16.8001H14.5601V19.6ZM18.4801 19.6H21.2801V22.4H18.4801V19.6Z" fill="#606571"/>
</svg>
