<svg width="23" height="23" viewBox="0 0 23 23" fill="none" xmlns="http://www.w3.org/2000/svg">
<path d="M1.2467 1.2469C1.83249 0.66111 2.78224 0.66111 3.36802 1.2469L21.7528 19.6317C22.3386 20.2175 22.3386 21.1672 21.7528 21.753C21.167 22.3388 20.2173 22.3388 19.6315 21.753L1.2467 3.36822C0.660916 2.78243 0.660916 1.83268 1.2467 1.2469Z" fill="#F69020"/>
<path d="M21.7526 1.2469C21.1668 0.66111 20.217 0.66111 19.6312 1.2469L1.24647 19.6317C0.660682 20.2175 0.660682 21.1672 1.24647 21.753C1.83226 22.3388 2.782 22.3388 3.36779 21.753L21.7526 3.36822C22.3383 2.78243 22.3383 1.83268 21.7526 1.2469Z" fill="#F69020"/>
</svg>
