<svg width="34" height="34" viewBox="0 0 34 34" fill="none" xmlns="http://www.w3.org/2000/svg">
<path d="M17 2.71997C11.7388 2.71997 7.47998 6.97879 7.47998 12.24C7.47998 16.5975 9.76132 21.2525 12.0022 24.8638C14.2432 28.4751 16.4873 31.0475 16.4873 31.0475C16.5515 31.1211 16.6309 31.18 16.7199 31.2202C16.8089 31.2604 16.9055 31.2809 17.0032 31.2804C17.1009 31.2799 17.1973 31.2584 17.2859 31.2173C17.3745 31.1762 17.4532 31.1165 17.5166 31.0422C17.5166 31.0422 19.7593 28.4206 21.999 24.7854C24.2387 21.1502 26.52 16.5017 26.52 12.24C26.52 6.97879 22.2612 2.71997 17 2.71997ZM17 4.07997C21.5308 4.07997 25.16 7.70916 25.16 12.24C25.16 16.0023 23.0212 20.5334 20.8409 24.0722C19.0709 26.9452 17.5988 28.7788 16.996 29.5122C16.39 28.7879 14.9229 26.9913 13.1577 24.1466C10.9786 20.6349 8.83998 16.1104 8.83998 12.24C8.83998 7.70916 12.4692 4.07997 17 4.07997ZM17 7.47997C14.3851 7.47997 12.24 9.62506 12.24 12.24C12.24 14.8549 14.3851 17 17 17C19.6149 17 21.76 14.8549 21.76 12.24C21.76 9.62506 19.6149 7.47997 17 7.47997ZM17 8.83997C18.8731 8.83997 20.4 10.3669 20.4 12.24C20.4 14.1131 18.8731 15.64 17 15.64C15.1269 15.64 13.6 14.1131 13.6 12.24C13.6 10.3669 15.1269 8.83997 17 8.83997Z" fill="#606571"/>
</svg>
