<svg width="278" height="52" viewBox="0 0 278 52" fill="none" xmlns="http://www.w3.org/2000/svg">
<path d="M19.9166 23.8639L31.9925 1.29053H25.6997L16.6728 18.1562L7.09916 1.29053H0.713623L13.5774 23.9468L16.8211 29.6546L28.6283 50.304H35.0138L19.9166 23.8639Z" fill="url(#paint0_linear_51_1031)"/>
<path d="M19.9166 23.8639L31.9925 1.29053H25.6997L16.6728 18.1562L7.09916 1.29053H0.713623L13.5774 23.9468L16.8211 29.6546L28.6283 50.304H35.0138L19.9166 23.8639Z" fill="url(#paint1_linear_51_1031)"/>
<path d="M54.4019 1.29053V13.5849L62.5947 32.0482H48.3315V37.5719H64.9302L70.324 50.304H76.3574L54.4019 1.29053Z" fill="url(#paint2_linear_51_1031)"/>
<path d="M54.4019 1.29053V13.5849L62.5947 32.0482H48.3315V37.5719H64.9302L70.324 50.304H76.3574L54.4019 1.29053Z" fill="url(#paint3_linear_51_1031)"/>
<path d="M255.43 1.29053V13.5849L263.623 32.0482H249.36V37.5719H265.958L271.352 50.304H277.385L255.43 1.29053Z" fill="url(#paint4_linear_51_1031)"/>
<path d="M255.43 1.29053V13.5849L263.623 32.0482H249.36V37.5719H265.958L271.352 50.304H277.385L255.43 1.29053Z" fill="url(#paint5_linear_51_1031)"/>
<path d="M131.612 1.29053H126.051V50.304H131.612V1.29053Z" fill="url(#paint6_linear_51_1031)"/>
<path d="M131.612 1.29053H126.051V50.304H131.612V1.29053Z" fill="url(#paint7_linear_51_1031)"/>
<path d="M131.612 1.29053H126.051V50.304H131.612V1.29053Z" fill="url(#paint8_linear_51_1031)"/>
<path d="M144.93 50.304H151.435L181.515 1.29053H145.411V6.81421H171.633L144.93 50.304Z" fill="url(#paint9_linear_51_1031)"/>
<path d="M144.93 50.304H151.435L181.515 1.29053H145.411V6.81421H171.633L144.93 50.304Z" fill="url(#paint10_linear_51_1031)"/>
<path d="M144.93 50.304H151.435L181.515 1.29053H145.411V6.81421H171.633L144.93 50.304Z" fill="url(#paint11_linear_51_1031)"/>
<path d="M190.628 50.6012L195.598 19.3102L210.521 51.4067L225.443 19.3102L230.413 50.6012H236.042L228.035 0.187744L210.521 37.9475L193.006 0.187744L185 50.6012H190.628Z" fill="url(#paint12_linear_51_1031)"/>
<path d="M190.628 50.6012L195.598 19.3102L210.521 51.4067L225.443 19.3102L230.413 50.6012H236.042L228.035 0.187744L210.521 37.9475L193.006 0.187744L185 50.6012H190.628Z" fill="url(#paint13_linear_51_1031)"/>
<path d="M190.628 50.6012L195.598 19.3102L210.521 51.4067L225.443 19.3102L230.413 50.6012H236.042L228.035 0.187744L210.521 37.9475L193.006 0.187744L185 50.6012H190.628Z" fill="url(#paint14_linear_51_1031)"/>
<path d="M95.5523 23.2023H86.7249L105.487 50.304H112.733L97.9376 28.9316C104.533 27.8031 109.567 22.0806 109.567 15.2117C109.567 7.53532 103.28 1.29053 95.5523 1.29053H89.6646V7.22158H95.5523C99.9876 7.22158 103.596 10.8059 103.596 15.2117C103.596 19.6175 99.9876 23.2023 95.5523 23.2023Z" fill="url(#paint15_linear_51_1031)"/>
<path d="M95.5523 23.2023H86.7249L105.487 50.304H112.733L97.9376 28.9316C104.533 27.8031 109.567 22.0806 109.567 15.2117C109.567 7.53532 103.28 1.29053 95.5523 1.29053H89.6646V7.22158H95.5523C99.9876 7.22158 103.596 10.8059 103.596 15.2117C103.596 19.6175 99.9876 23.2023 95.5523 23.2023Z" fill="url(#paint16_linear_51_1031)"/>
<path d="M95.5523 23.2023H86.7249L105.487 50.304H112.733L97.9376 28.9316C104.533 27.8031 109.567 22.0806 109.567 15.2117C109.567 7.53532 103.28 1.29053 95.5523 1.29053H89.6646V7.22158H95.5523C99.9876 7.22158 103.596 10.8059 103.596 15.2117C103.596 19.6175 99.9876 23.2023 95.5523 23.2023Z" fill="url(#paint17_linear_51_1031)"/>
<defs>
<linearGradient id="paint0_linear_51_1031" x1="0.713623" y1="25.7973" x2="277.385" y2="25.7973" gradientUnits="userSpaceOnUse">
<stop stop-color="#EA422A"/>
<stop offset="0.0947882" stop-color="#EC5128"/>
<stop offset="0.523442" stop-color="#F69020"/>
<stop offset="0.836995" stop-color="#FDB71B"/>
<stop offset="1" stop-color="#FFC619"/>
</linearGradient>
<linearGradient id="paint1_linear_51_1031" x1="0.713623" y1="25.7973" x2="277.385" y2="25.7973" gradientUnits="userSpaceOnUse">
<stop stop-color="#EA422A"/>
<stop offset="0.0947882" stop-color="#EC5128"/>
<stop offset="0.523442" stop-color="#F69020"/>
<stop offset="0.836995" stop-color="#FDB71B"/>
<stop offset="1" stop-color="#FFC619"/>
</linearGradient>
<linearGradient id="paint2_linear_51_1031" x1="0.71351" y1="25.7973" x2="277.385" y2="25.7973" gradientUnits="userSpaceOnUse">
<stop stop-color="#EA422A"/>
<stop offset="0.0947882" stop-color="#EC5128"/>
<stop offset="0.523442" stop-color="#F69020"/>
<stop offset="0.836995" stop-color="#FDB71B"/>
<stop offset="1" stop-color="#FFC619"/>
</linearGradient>
<linearGradient id="paint3_linear_51_1031" x1="0.71351" y1="25.7973" x2="277.385" y2="25.7973" gradientUnits="userSpaceOnUse">
<stop stop-color="#EA422A"/>
<stop offset="0.0947882" stop-color="#EC5128"/>
<stop offset="0.523442" stop-color="#F69020"/>
<stop offset="0.836995" stop-color="#FDB71B"/>
<stop offset="1" stop-color="#FFC619"/>
</linearGradient>
<linearGradient id="paint4_linear_51_1031" x1="0.714312" y1="25.7973" x2="277.385" y2="25.7973" gradientUnits="userSpaceOnUse">
<stop stop-color="#EA422A"/>
<stop offset="0.0947882" stop-color="#EC5128"/>
<stop offset="0.523442" stop-color="#F69020"/>
<stop offset="0.836995" stop-color="#FDB71B"/>
<stop offset="1" stop-color="#FFC619"/>
</linearGradient>
<linearGradient id="paint5_linear_51_1031" x1="0.714312" y1="25.7973" x2="277.385" y2="25.7973" gradientUnits="userSpaceOnUse">
<stop stop-color="#EA422A"/>
<stop offset="0.0947882" stop-color="#EC5128"/>
<stop offset="0.523442" stop-color="#F69020"/>
<stop offset="0.836995" stop-color="#FDB71B"/>
<stop offset="1" stop-color="#FFC619"/>
</linearGradient>
<linearGradient id="paint6_linear_51_1031" x1="0.713018" y1="25.7973" x2="277.386" y2="25.7973" gradientUnits="userSpaceOnUse">
<stop stop-color="#EA422A"/>
<stop offset="0.0947882" stop-color="#EC5128"/>
<stop offset="0.523442" stop-color="#F69020"/>
<stop offset="0.836995" stop-color="#FDB71B"/>
<stop offset="1" stop-color="#FFC619"/>
</linearGradient>
<linearGradient id="paint7_linear_51_1031" x1="0.713018" y1="25.7973" x2="277.386" y2="25.7973" gradientUnits="userSpaceOnUse">
<stop stop-color="#EA422A"/>
<stop offset="0.0947882" stop-color="#EC5128"/>
<stop offset="0.523442" stop-color="#F69020"/>
<stop offset="0.836995" stop-color="#FDB71B"/>
<stop offset="1" stop-color="#FFC619"/>
</linearGradient>
<linearGradient id="paint8_linear_51_1031" x1="0.713018" y1="25.7973" x2="277.386" y2="25.7973" gradientUnits="userSpaceOnUse">
<stop stop-color="#EA422A"/>
<stop offset="0.0947882" stop-color="#EC5128"/>
<stop offset="0.523442" stop-color="#F69020"/>
<stop offset="0.836995" stop-color="#FDB71B"/>
<stop offset="1" stop-color="#FFC619"/>
</linearGradient>
<linearGradient id="paint9_linear_51_1031" x1="0.71376" y1="25.7973" x2="277.385" y2="25.7973" gradientUnits="userSpaceOnUse">
<stop stop-color="#EA422A"/>
<stop offset="0.0947882" stop-color="#EC5128"/>
<stop offset="0.523442" stop-color="#F69020"/>
<stop offset="0.836995" stop-color="#FDB71B"/>
<stop offset="1" stop-color="#FFC619"/>
</linearGradient>
<linearGradient id="paint10_linear_51_1031" x1="0.71376" y1="25.7973" x2="277.385" y2="25.7973" gradientUnits="userSpaceOnUse">
<stop stop-color="#EA422A"/>
<stop offset="0.0947882" stop-color="#EC5128"/>
<stop offset="0.523442" stop-color="#F69020"/>
<stop offset="0.836995" stop-color="#FDB71B"/>
<stop offset="1" stop-color="#FFC619"/>
</linearGradient>
<linearGradient id="paint11_linear_51_1031" x1="0.71376" y1="25.7973" x2="277.385" y2="25.7973" gradientUnits="userSpaceOnUse">
<stop stop-color="#EA422A"/>
<stop offset="0.0947882" stop-color="#EC5128"/>
<stop offset="0.523442" stop-color="#F69020"/>
<stop offset="0.836995" stop-color="#FDB71B"/>
<stop offset="1" stop-color="#FFC619"/>
</linearGradient>
<linearGradient id="paint12_linear_51_1031" x1="0.713823" y1="25.7972" x2="277.385" y2="25.7972" gradientUnits="userSpaceOnUse">
<stop stop-color="#EA422A"/>
<stop offset="0.0947882" stop-color="#EC5128"/>
<stop offset="0.523442" stop-color="#F69020"/>
<stop offset="0.836995" stop-color="#FDB71B"/>
<stop offset="1" stop-color="#FFC619"/>
</linearGradient>
<linearGradient id="paint13_linear_51_1031" x1="0.713823" y1="25.7972" x2="277.385" y2="25.7972" gradientUnits="userSpaceOnUse">
<stop stop-color="#EA422A"/>
<stop offset="0.0947882" stop-color="#EC5128"/>
<stop offset="0.523442" stop-color="#F69020"/>
<stop offset="0.836995" stop-color="#FDB71B"/>
<stop offset="1" stop-color="#FFC619"/>
</linearGradient>
<linearGradient id="paint14_linear_51_1031" x1="0.713823" y1="25.7972" x2="277.385" y2="25.7972" gradientUnits="userSpaceOnUse">
<stop stop-color="#EA422A"/>
<stop offset="0.0947882" stop-color="#EC5128"/>
<stop offset="0.523442" stop-color="#F69020"/>
<stop offset="0.836995" stop-color="#FDB71B"/>
<stop offset="1" stop-color="#FFC619"/>
</linearGradient>
<linearGradient id="paint15_linear_51_1031" x1="0.713586" y1="25.7972" x2="277.385" y2="25.7972" gradientUnits="userSpaceOnUse">
<stop stop-color="#EA422A"/>
<stop offset="0.0947882" stop-color="#EC5128"/>
<stop offset="0.523442" stop-color="#F69020"/>
<stop offset="0.836995" stop-color="#FDB71B"/>
<stop offset="1" stop-color="#FFC619"/>
</linearGradient>
<linearGradient id="paint16_linear_51_1031" x1="0.713586" y1="25.7972" x2="277.385" y2="25.7972" gradientUnits="userSpaceOnUse">
<stop stop-color="#EA422A"/>
<stop offset="0.0947882" stop-color="#EC5128"/>
<stop offset="0.523442" stop-color="#F69020"/>
<stop offset="0.836995" stop-color="#FDB71B"/>
<stop offset="1" stop-color="#FFC619"/>
</linearGradient>
<linearGradient id="paint17_linear_51_1031" x1="0.713586" y1="25.7972" x2="277.385" y2="25.7972" gradientUnits="userSpaceOnUse">
<stop stop-color="#EA422A"/>
<stop offset="0.0947882" stop-color="#EC5128"/>
<stop offset="0.523442" stop-color="#F69020"/>
<stop offset="0.836995" stop-color="#FDB71B"/>
<stop offset="1" stop-color="#FFC619"/>
</linearGradient>
</defs>
</svg>
