<svg width="68" height="68" viewBox="0 0 68 68" fill="none" xmlns="http://www.w3.org/2000/svg">
<g clip-path="url(#clip0_51_983)">
<path d="M46.58 2.8475L45.815 3.995L33.745 21.3775L23.12 24.5225L23.0775 24.565H23.035C21.6909 25.0697 20.6496 25.9516 19.8475 27.0725L19.805 27.115V27.1575L10.625 41.31L10.285 40.205L1.35996 42.8825L0.0849609 43.3075L0.467461 44.5825L6.58746 65.11L6.96996 66.4275L8.28746 66.045L15.895 63.7075L17.2125 63.325L16.7875 62.05L16.0225 59.4575L26.69 57.0775C29.9678 56.3338 32.9534 54.5647 35.0625 51.85L35.5725 51.2125L40.715 54.825L41.82 55.6325L42.585 54.485L67.235 18.87L68 17.765L66.8525 16.9575L47.685 3.655L46.58 2.8475ZM47.26 6.63L64.2175 18.445L54.485 32.5125C55.7334 28.5334 53.8209 23.7681 49.7675 20.9525C49.7568 20.9472 49.7781 20.9153 49.7675 20.91C49.7568 20.8994 49.7356 20.9206 49.725 20.91C47.3609 19.2419 44.5506 18.5459 41.99 18.785C40.5237 18.9231 39.1478 19.3906 37.9525 20.145L47.26 6.63ZM52.955 14.705C52.2112 14.6997 51.494 15.0662 51.0425 15.725C50.32 16.7769 50.5856 18.19 51.6375 18.9125C52.6893 19.635 54.145 19.3694 54.8675 18.3175C55.59 17.2656 55.3243 15.8525 54.2725 15.13C53.8793 14.8591 53.4012 14.7103 52.955 14.705ZM42.33 21.4625C44.2106 21.2925 46.309 21.8078 48.1525 23.12L48.195 23.1625C52.0465 25.8134 53.194 30.3078 51.255 33.1075H51.2125C50.235 34.6163 48.604 35.4344 46.58 35.53C46.649 33.9734 46.0965 32.4222 44.88 31.28C44.8693 31.2694 44.8481 31.2906 44.8375 31.28C42.9834 29.4472 40.0934 29.1391 37.9525 30.5575C36.6562 28.2253 36.5606 25.6912 37.825 23.885C38.7918 22.4878 40.4493 21.6325 42.33 21.4625ZM31.3225 24.9475L24.82 35.19L24.0975 36.38L25.2875 37.06L29.6225 39.6525L30.43 40.1625L31.195 39.525L38.08 33.9575C38.4306 33.8459 38.7175 33.6016 38.8875 33.2775L39.2275 33.0225C40.3112 32.1194 41.9687 32.1938 42.9675 33.1925V33.235H43.01C44.1256 34.255 44.2265 35.8488 43.265 37.1025L32.9375 50.15C31.2375 52.3334 28.8043 53.8263 26.095 54.4425L15.2575 56.865L11.4325 44.03L11.8575 43.86L12.325 43.69L12.58 43.3075L22.0575 28.6875C22.594 27.9331 23.1465 27.4709 23.9275 27.1575C23.9593 27.1469 23.9806 27.1256 24.0125 27.115L31.3225 24.9475ZM34.425 25.1175C33.899 27.4816 34.4303 30.0475 35.785 32.3L30.2175 36.8475L27.88 35.445L34.425 25.1175ZM51.765 36.465L41.14 51.85L37.23 49.0875L45.39 38.8025V38.76H45.4325C45.56 38.5953 45.6662 38.4253 45.7725 38.25C47.9825 38.3138 50.1128 37.7453 51.765 36.465ZM8.45746 43.5625L13.8125 61.54L8.79746 63.07L3.44246 45.135L8.45746 43.5625Z" fill="url(#paint0_linear_51_983)"/>
</g>
<defs>
<linearGradient id="paint0_linear_51_983" x1="34.0425" y1="2.8475" x2="34.0425" y2="66.4275" gradientUnits="userSpaceOnUse">
<stop stop-color="#FFC619"/>
<stop offset="0.520833" stop-color="#F69020"/>
<stop offset="1" stop-color="#EA422A"/>
</linearGradient>
<clipPath id="clip0_51_983">
<rect width="68" height="68" fill="white"/>
</clipPath>
</defs>
</svg>
