<svg width="67" height="67" viewBox="0 0 67 67" fill="none" xmlns="http://www.w3.org/2000/svg">
<path d="M56.908 2.69047C55.2749 2.69047 53.6418 3.30813 52.4065 4.54344L49.9725 6.97742C49.5014 7.44852 49.449 8.19703 49.8521 8.73094L47.0046 11.5784C41.1997 17.3834 36.3579 19.1421 31.4951 20.7648C26.6376 22.3874 21.6754 23.8687 16.5772 28.9723L4.28161 41.2626C2.15645 43.3877 2.15645 46.8738 4.28161 49.0042L11.1386 55.8612L17.9957 62.713C20.1261 64.8434 23.6122 64.8434 25.7373 62.713L38.0276 50.4227C43.1311 45.3245 44.6125 40.3623 46.2299 35.5048C47.8526 30.642 49.6113 25.8002 55.4215 19.9953L58.269 17.1478C58.8029 17.5509 59.5514 17.4985 60.0225 17.0274L62.4565 14.5934C64.9323 12.1176 64.9323 8.06617 62.4565 5.59031L61.4096 4.54344C60.169 3.30813 58.5411 2.68523 56.908 2.69047ZM56.908 5.34953C57.8502 5.35477 58.7924 5.71594 59.52 6.43828L60.5616 7.48516C62.0115 8.93508 62.0115 11.2487 60.5616 12.6986L59.0855 14.1747L55.9554 11.0445C55.9187 11.0079 55.8768 10.9713 55.835 10.9398L52.82 7.92484L54.2961 6.43828C55.0236 5.71594 55.9658 5.34953 56.908 5.34953ZM33.4999 5.36C32.7618 5.36 32.1599 5.96195 32.1599 6.7C32.1599 7.43805 32.7618 8.04 33.4999 8.04C34.2379 8.04 34.8399 7.43805 34.8399 6.7C34.8399 5.96195 34.2379 5.36 33.4999 5.36ZM41.5399 9.38C40.8018 9.38 40.1999 9.98195 40.1999 10.72C40.1999 11.458 40.8018 12.06 41.5399 12.06C42.2779 12.06 42.8799 11.458 42.8799 10.72C42.8799 9.98195 42.2779 9.38 41.5399 9.38ZM51.7365 10.6363L56.3636 15.2634L53.5214 18.1005C51.5114 20.1157 49.9725 22.0472 48.7058 23.9263L43.0736 18.2941C44.9527 17.0274 46.8842 15.4885 48.8994 13.4785L51.7365 10.6363ZM40.739 19.7441L47.2558 26.2609C46.1095 28.2918 45.272 30.2442 44.5811 32.1181L37.3105 29.6894L34.8818 22.4188C36.7557 21.7279 38.7081 20.8904 40.739 19.7441ZM32.3536 23.3034L34.9812 31.1759C35.1121 31.5737 35.4261 31.8878 35.824 32.0187L43.6965 34.6463C43.6912 34.6463 43.6912 34.6516 43.6912 34.6516C42.0529 39.5719 40.8176 43.8484 36.138 48.5331L23.8477 60.8234C22.7433 61.9227 20.995 61.9227 19.8905 60.8234L6.17646 47.1094C5.07724 46.0049 5.07724 44.2566 6.17646 43.1522L18.4668 30.8619C23.1515 26.1823 27.428 24.947 32.3483 23.3087C32.3483 23.3087 32.3536 23.3087 32.3536 23.3034ZM58.9599 24.12C58.2218 24.12 57.6199 24.722 57.6199 25.46C57.6199 26.198 58.2218 26.8 58.9599 26.8C59.6979 26.8 60.2999 26.198 60.2999 25.46C60.2999 24.722 59.6979 24.12 58.9599 24.12ZM62.9799 29.48C62.2418 29.48 61.6399 30.082 61.6399 30.82C61.6399 31.558 62.2418 32.16 62.9799 32.16C63.7179 32.16 64.3199 31.558 64.3199 30.82C64.3199 30.082 63.7179 29.48 62.9799 29.48ZM56.2799 32.16C55.5418 32.16 54.9399 32.762 54.9399 33.5C54.9399 34.238 55.5418 34.84 56.2799 34.84C57.0179 34.84 57.6199 34.238 57.6199 33.5C57.6199 32.762 57.0179 32.16 56.2799 32.16ZM30.8199 33.5C29.3386 33.5 28.1399 34.6987 28.1399 36.18C28.1399 37.6613 29.3386 38.86 30.8199 38.86C32.3012 38.86 33.4999 37.6613 33.4999 36.18C33.4999 34.6987 32.3012 33.5 30.8199 33.5ZM20.5082 34.259C20.1575 34.2642 19.8277 34.4055 19.5765 34.6516L11.1386 43.0946C10.6152 43.618 10.6152 44.4712 11.1386 44.9947L22.0052 55.8612C22.5286 56.3794 23.3818 56.3794 23.9053 55.8612L32.3431 47.4182C32.8665 46.8948 32.8665 46.0468 32.3431 45.5234L21.4765 34.6516C21.22 34.4003 20.8693 34.259 20.5082 34.259ZM20.5239 37.4991L29.5008 46.4708L22.9526 53.0137L13.9809 44.0473L20.5239 37.4991Z" fill="url(#paint0_linear_51_977)"/>
<defs>
<linearGradient id="paint0_linear_51_977" x1="33.5038" y1="2.69044" x2="33.5038" y2="64.3108" gradientUnits="userSpaceOnUse">
<stop stop-color="#FFC619"/>
<stop offset="0.520833" stop-color="#F69020"/>
<stop offset="1" stop-color="#EA422A"/>
</linearGradient>
</defs>
</svg>
