<svg width="50" height="50" viewBox="0 0 50 50" fill="none" xmlns="http://www.w3.org/2000/svg">
<path d="M48 25C48 21.655 46.099 18.735 43.324 17.26C44.082 14.372 43.343 11.162 41.09 8.909C39.407 7.226 37.19 6.388 34.971 6.388C34.22 6.388 33.469 6.484 32.739 6.676C31.265 3.901 28.345 2 25 2C21.655 2 18.735 3.901 17.26 6.676C16.529 6.484 15.779 6.388 15.028 6.388C12.809 6.388 10.592 7.226 8.909 8.909C6.656 11.162 5.917 14.371 6.675 17.26C3.901 18.735 2 21.655 2 25C2 28.345 3.901 31.265 6.676 32.74C5.918 35.628 6.657 38.838 8.91 41.091C10.593 42.774 12.81 43.612 15.029 43.612C15.78 43.612 16.531 43.516 17.261 43.324C18.735 46.099 21.655 48 25 48C28.345 48 31.265 46.099 32.74 43.324C33.471 43.516 34.221 43.612 34.972 43.612C37.191 43.612 39.408 42.774 41.091 41.091C43.344 38.838 44.083 35.629 43.325 32.74C46.099 31.265 48 28.345 48 25ZM21.714 32.985L14.436 25.707L15.85 24.293L21.714 30.157L34.15 17.722L35.564 19.136L21.714 32.985Z" fill="#606571"/>
</svg>
