<svg width="68" height="68" viewBox="0 0 68 68" fill="none" xmlns="http://www.w3.org/2000/svg">
<path d="M42.8399 2.15688L41.8784 3.11844L37.5168 7.48L42.8399 12.8031L48.1631 7.48L42.8399 2.15688ZM25.8399 5.44C25.4793 5.44004 25.1334 5.58333 24.8783 5.83838C24.6233 6.09342 24.48 6.43932 24.4799 6.8V13.6C24.48 13.9607 24.6233 14.3066 24.8783 14.5616C25.1334 14.8167 25.4793 14.96 25.8399 14.96H27.1999C28.8257 14.96 29.1793 15.4489 29.5268 16.2297C29.8743 17.0105 29.9199 18.1839 29.9199 19.04C29.9199 20.1503 29.7853 21.3177 29.5959 22.44C28.4004 22.0189 27.2532 21.7675 26.1906 21.76C24.9896 21.7514 23.7954 22.0886 22.942 22.942C22.5779 23.3061 22.3339 23.741 22.1451 24.2011L22.1212 24.1931L7.17447 62.0819L46.4153 48.6466L46.4073 48.6227C46.9111 48.4326 47.3845 48.1712 47.7779 47.778C48.7952 46.7607 49.071 45.2943 48.9201 43.8281C48.825 42.9038 48.5573 41.9275 48.171 40.9142C49.2448 40.8492 50.3868 40.8 51.6799 40.8C53.6187 40.8 55.453 41.0345 56.6445 41.4481C57.2402 41.655 57.6599 41.9083 57.8637 42.1016C58.0675 42.2948 58.0788 42.3509 58.0788 42.5V43.52C58.0789 43.8807 58.2222 44.2266 58.4772 44.4816C58.7323 44.7367 59.0782 44.88 59.4388 44.88H65.2799C65.4619 44.8801 65.6421 44.8436 65.8097 44.7728C65.9774 44.7019 66.1291 44.5982 66.2559 44.4676C66.3828 44.3371 66.4821 44.1824 66.548 44.0128C66.614 43.8432 66.6453 43.6621 66.6399 43.4802C66.6399 43.4802 66.5999 41.8042 66.6001 41.7855C66.6001 41.7846 66.6001 41.7837 66.6001 41.7828C66.625 38.6954 64.6803 36.3026 62.281 34.8314C59.8818 33.3602 56.9699 32.64 54.3707 32.64C50.0692 32.64 46.8696 33.7559 44.7285 34.8606C44.0534 33.9437 43.3095 33.0198 42.4973 32.1008C42.9823 31.946 43.4746 31.8019 43.9503 31.6731C44.9084 31.4137 45.8141 31.2011 46.5188 31.0436C47.2236 30.8861 47.6126 30.8185 47.9665 30.7195C49.0644 30.4118 50.5631 30.0357 51.9057 29.1391C53.2484 28.2424 54.3999 26.6297 54.3999 24.48C54.3999 23.8915 54.1146 23.5641 53.9271 23.12H54.3999C57.3074 23.12 59.8399 20.7724 59.8399 17.68V15.81C59.8399 15.81 59.8501 15.6247 59.9781 15.4169C60.106 15.209 60.2083 14.96 61.1999 14.96H62.5599C62.9206 14.96 63.2665 14.8167 63.5216 14.5616C63.7766 14.3066 63.9199 13.9607 63.9199 13.6V8.16266C63.9199 7.80197 63.7766 7.45607 63.5216 7.20103C63.2665 6.94599 62.9206 6.80269 62.5599 6.80266H60.3553C56.7406 6.79961 54.5079 8.47285 53.3135 10.0645C52.428 11.2442 52.1552 12.702 51.9456 13.9533C51.8536 14.5021 51.872 14.5613 51.8313 14.96H51.6799C49.3377 14.96 47.5025 15.809 46.386 17.1488C45.2696 18.4885 44.8799 20.1733 44.8799 21.76V23.6061C42.6509 24.341 40.0981 25.5343 37.902 27.6117C36.6074 26.5108 35.3207 25.5271 34.0584 24.7058C35.4523 22.2479 36.7199 18.9317 36.7199 14.96C36.7199 12.6178 35.9437 10.2527 34.3187 8.44156C32.6937 6.63046 30.2037 5.44 27.099 5.44H27.0963H27.0778H25.8399ZM42.8399 6.00313L44.3168 7.48L42.8399 8.95688L41.3631 7.48L42.8399 6.00313ZM14.2799 7.59688L13.3184 8.55844L8.95682 12.92L14.2799 18.2431L19.6031 12.92L14.2799 7.59688ZM27.1999 8.17859C29.5719 8.20573 31.1924 9.02991 32.2946 10.2584C33.4152 11.5073 33.9999 13.2222 33.9999 14.96C33.9999 17.7916 33.1754 20.1017 32.2149 22.092C32.3676 21.0497 32.6399 20.1279 32.6399 19.04C32.6399 18.1839 32.6856 16.6358 32.0131 15.1247C31.3406 13.6136 29.6541 12.24 27.1999 12.24V8.17859ZM60.3526 9.52266C60.3535 9.52266 60.3544 9.52266 60.3553 9.52266H61.1999V12.24C59.4716 12.24 58.2139 13.096 57.6618 13.9931C57.1097 14.8903 57.1199 15.81 57.1199 15.81V17.68C57.1199 19.3476 55.9125 20.4 54.3999 20.4H51.6799C51.4322 20.4 51.1891 20.4677 50.977 20.5958C50.7649 20.7239 50.5918 20.9075 50.4764 21.1268C50.361 21.3461 50.3077 21.5927 50.3223 21.84C50.3368 22.0874 50.4187 22.3261 50.559 22.5303C50.5595 22.531 50.6651 22.6647 50.6732 22.6737C50.6814 22.6829 50.6867 22.6893 50.6918 22.695C50.7021 22.7063 50.714 22.7181 50.729 22.7348C50.759 22.7684 50.8019 22.8184 50.8538 22.8809C50.9577 23.0059 51.0955 23.1833 51.2284 23.3856C51.4942 23.7902 51.6799 24.2977 51.6799 24.48C51.6799 25.782 51.2185 26.3256 50.3943 26.8759C49.5702 27.4263 48.3482 27.788 47.2334 28.1005C47.2785 28.0878 46.6509 28.2275 45.9238 28.39C45.1968 28.5525 44.2557 28.774 43.241 29.0488C41.683 29.4706 40.1323 30.1476 38.6935 30.8683C40.9711 28.0344 44.0983 26.4931 46.6065 25.7895C46.8923 25.7095 47.1441 25.5382 47.3234 25.3018C47.5028 25.0654 47.5999 24.7768 47.5999 24.48V21.76C47.5999 20.6267 47.8903 19.5915 48.4738 18.8913C49.0574 18.191 49.9422 17.68 51.6799 17.68H53.0399C53.3881 17.6798 53.7229 17.5461 53.9754 17.3064C54.2279 17.0667 54.3789 16.7394 54.3973 16.3917C54.3973 16.3917 54.4467 15.4864 54.6284 14.4022C54.8101 13.318 55.2173 12.054 55.4863 11.6955C55.4872 11.6955 55.4881 11.6955 55.489 11.6955C56.3349 10.5676 57.5002 9.52026 60.3526 9.52266ZM14.2799 11.4431L15.7568 12.92L14.2799 14.3969L12.8031 12.92L14.2799 11.4431ZM61.8799 23.12L58.4799 26.52L61.8799 29.92L65.2773 26.52L61.8799 23.12ZM8.83994 24.48L5.43994 27.88L8.83994 31.28L12.2373 27.88L8.83994 24.48ZM26.1693 24.48C26.8822 24.485 27.8671 24.7455 28.9982 25.2025C28.6093 26.6874 28.2346 27.7822 28.119 28.1323C28.0257 28.4152 28.0279 28.7208 28.1251 29.0023C28.2223 29.2838 28.4093 29.5256 28.6572 29.6906C28.9052 29.8556 29.2004 29.9346 29.4976 29.9156C29.7948 29.8966 30.0776 29.7806 30.3024 29.5853C30.4932 29.4192 30.8272 29.1077 31.434 28.4166C31.7582 28.0473 32.1362 27.5801 32.5337 27.0459C33.6917 27.7727 34.9003 28.6537 36.109 29.6623C35.933 29.9028 35.7492 30.1295 35.5831 30.3875L32.8578 34.6242C32.6889 34.8885 32.6167 35.2031 32.6532 35.5146C32.6897 35.8261 32.8327 36.1154 33.058 36.3335C33.2833 36.5517 33.5771 36.6852 33.8897 36.7116C34.2022 36.738 34.5142 36.6556 34.7729 36.4783L38.8635 33.6547C39.1035 33.489 39.4175 33.3176 39.772 33.1473C40.7475 34.198 41.636 35.2571 42.4123 36.2977C41.9775 36.6319 41.6377 36.9272 41.5729 36.9909C41.572 36.9918 41.5711 36.9927 41.5703 36.9936L38.4837 40.043C38.2615 40.2626 38.1217 40.552 38.0878 40.8626C38.0539 41.1732 38.1279 41.486 38.2974 41.7484C38.467 42.0108 38.7217 42.2068 39.0188 42.3036C39.3158 42.4003 39.6371 42.3918 39.9287 42.2795C39.9287 42.2795 41.7139 41.6018 45.3342 41.1639C45.8331 42.3027 46.1353 43.3227 46.216 44.107C46.3164 45.0824 46.1227 45.5869 45.8548 45.8548C45.7501 45.9595 45.6 46.0469 45.4112 46.1152L45.2731 46.163C45.0317 46.226 44.7267 46.2561 44.3221 46.232C43.4733 46.1814 42.3053 45.8629 40.9832 45.2625C38.3391 44.0617 35.0868 41.7653 32.021 38.6989C28.9552 35.6324 26.6584 32.381 25.4574 29.7367C24.857 28.4146 24.5386 27.2438 24.4879 26.3952C24.4627 25.9734 24.4961 25.6546 24.5649 25.4097C24.573 25.3812 24.5852 25.3619 24.5942 25.3353C24.6633 25.1311 24.755 24.9753 24.8651 24.8652C25.0888 24.6415 25.4554 24.4749 26.1693 24.48ZM22.6896 30.1644C22.7841 30.3964 22.8718 30.6266 22.9792 30.863C24.3683 33.9216 26.8371 37.3605 30.0979 40.622C33.3589 43.8837 36.7983 46.3518 39.857 47.7408C39.9802 47.7967 40.0989 47.8397 40.2209 47.8922L11.8654 57.6008L22.6896 30.1644ZM54.3707 35.36C56.4418 35.36 58.982 35.9988 60.8599 37.1503C62.7379 38.3018 63.896 39.7953 63.8801 41.7589C63.879 41.8636 63.8851 41.9941 63.8881 42.16H60.6474C60.5422 41.3861 60.262 40.6266 59.7363 40.128C59.1228 39.546 58.3683 39.1691 57.5343 38.8795C55.8663 38.3004 53.8212 38.08 51.6799 38.08C48.1798 38.08 45.7852 38.4386 43.7085 38.7786C44.0205 38.4807 47.3746 35.36 54.3707 35.36ZM52.3599 51.1169L51.3984 52.0784L47.0368 56.44L52.3599 61.7631L57.6831 56.44L52.3599 51.1169ZM52.3599 54.9631L53.8368 56.44L52.3599 57.9169L50.8831 56.44L52.3599 54.9631Z" fill="url(#paint0_linear_51_989)"/>
<defs>
<linearGradient id="paint0_linear_51_989" x1="36.0402" y1="2.15688" x2="36.0402" y2="62.0819" gradientUnits="userSpaceOnUse">
<stop stop-color="#FFC619"/>
<stop offset="0.520833" stop-color="#F69020"/>
<stop offset="1" stop-color="#EA422A"/>
</linearGradient>
</defs>
</svg>
