<svg width="35" height="35" viewBox="0 0 35 35" fill="none" xmlns="http://www.w3.org/2000/svg">
<path d="M29.3467 4.64845C28.9674 4.66518 28.6141 4.77564 28.3031 4.90138C28.0117 5.01858 26.8984 5.49607 25.1449 6.24806C23.3898 7.0007 21.0659 7.99842 18.5869 9.06446C13.629 11.1966 8.05491 13.5965 5.19987 14.8249C5.09251 14.8711 4.71791 14.9907 4.32031 15.3011C3.92272 15.6115 3.5 16.2547 3.5 16.9714C3.5 17.5493 3.77541 18.1234 4.12207 18.4662C4.46873 18.8089 4.83554 18.9783 5.14974 19.1065C6.28977 19.5716 9.82549 21.0185 10.4932 21.2917C10.7281 22.0115 12.0079 25.9263 12.3047 26.8858C12.5003 27.5189 12.6866 27.9154 12.929 28.2302C13.0503 28.3875 13.1912 28.5254 13.362 28.6335C13.4302 28.6767 13.5051 28.7099 13.5807 28.7406L13.5853 28.7428C13.6027 28.7498 13.6177 28.7617 13.6354 28.7679C13.6688 28.7796 13.6911 28.781 13.7357 28.7907C13.9134 28.8481 14.0928 28.8841 14.2529 28.8841C14.9356 28.8841 15.3535 28.5081 15.3535 28.5081L15.3786 28.4899L18.89 25.4525L23.1488 29.4811C23.2087 29.5659 23.768 30.3333 25.0013 30.3333C25.7336 30.3333 26.3145 29.9659 26.6875 29.5746C27.0605 29.1832 27.2928 28.7721 27.3916 28.2552V28.2529C27.484 27.7645 31.4089 7.61524 31.4089 7.61524L31.402 7.64259C31.5169 7.11816 31.547 6.62976 31.4202 6.1478C31.2935 5.66584 30.9594 5.20438 30.5452 4.95606C30.1311 4.7078 29.7259 4.63172 29.3467 4.64845ZM29.1279 7.0866C29.1223 7.12065 29.1321 7.10353 29.1234 7.14356L29.1211 7.15724L29.1188 7.17091C29.1188 7.17091 25.2426 27.0624 25.0993 27.82C25.1098 27.7628 25.0618 27.8765 25.0127 27.9453C24.9432 27.8974 24.8008 27.8359 24.8008 27.8359L24.778 27.8109L18.9606 22.308L14.8477 25.8626L16.0713 20.9636C16.0713 20.9636 23.7202 13.0458 24.181 12.585C24.552 12.2163 24.6299 12.0878 24.6299 11.9606C24.6299 11.7903 24.5411 11.6667 24.3428 11.6667C24.1643 11.6667 23.9242 11.8402 23.7959 11.9219C22.1239 12.9877 14.7838 17.2657 11.4935 19.1794C10.9706 18.9654 7.33794 17.4784 6.10677 16.9759C6.11609 16.9718 6.11302 16.9733 6.12272 16.9691C8.97851 15.7404 14.5502 13.3405 19.5075 11.2087C21.9861 10.1428 24.3118 9.14429 26.0654 8.39226C27.7921 7.65181 28.9918 7.14221 29.1279 7.0866Z" fill="#2C383F"/>
</svg>
