<svg width="70" height="70" viewBox="0 0 70 70" fill="none" xmlns="http://www.w3.org/2000/svg">
<path d="M47.5999 1.3125C39.178 1.3125 32.2765 8.11016 32.1124 16.4937C31.303 17.768 20.5679 34.6883 12.1187 43.1375L12.1624 43.1812C12.0476 43.2687 11.6374 43.5094 11.3749 44.1875C11.0741 44.9641 11.3147 46.2711 12.1624 47.1187L14.1312 49.0875L11.7687 51.45C9.35147 53.8672 8.27412 56.607 8.35615 59.1937C8.43818 61.7805 9.59756 64.1539 11.3749 65.8438C14.9241 69.2234 21.1257 70.0055 25.7249 65.4062L44.9312 46.2C48.6663 42.4648 52.7515 43.2359 55.2562 45.675C56.5085 46.8945 57.3179 48.5461 57.3562 50.3125C57.3944 52.0789 56.7218 54.0094 54.7749 55.9562L45.8937 64.8375C45.314 65.4172 45.314 66.3578 45.8937 66.9375C46.4733 67.5172 47.414 67.5172 47.9937 66.9375L56.8312 58.0562C59.2483 55.6391 60.3421 52.8664 60.2874 50.2687C60.2327 47.6711 59.0733 45.2867 57.3124 43.575C55.5515 41.8633 53.1179 40.8078 50.5312 40.775C47.9444 40.7422 45.2319 41.743 42.8749 44.1L23.6687 63.3062C20.0812 66.8937 15.9687 66.1172 13.4312 63.7C12.1624 62.4914 11.3421 60.8453 11.2874 59.1063C11.2327 57.3672 11.878 55.4531 13.8249 53.5062L13.9562 53.4188L16.1874 51.1875L17.2374 52.1937C18.0741 53.0305 19.228 53.3477 20.0374 53.1125C20.7429 52.9102 20.989 52.4453 21.0874 52.325L21.1749 52.4125C29.4108 44.1711 46.6265 33.1078 47.9062 32.2875C56.2952 32.1234 63.0874 25.2273 63.0874 16.8C63.0874 8.27422 56.1202 1.3125 47.5999 1.3125ZM47.5999 4.2875C54.5288 4.2875 60.1124 9.86562 60.1124 16.8C60.1124 19.5727 59.221 22.1266 57.7062 24.1938L40.2062 6.69375C42.2733 5.17891 44.8272 4.2875 47.5999 4.2875ZM38.0624 8.70625L55.7374 26.3375C53.5554 28.2023 50.7116 29.3125 47.5999 29.3125C40.6655 29.3125 35.0874 23.7398 35.0874 16.8C35.0874 13.6992 36.2085 10.8883 38.0624 8.70625ZM32.6812 20.8687C34.1304 26.157 38.3194 30.3461 43.6187 31.7625C37.9147 35.525 26.0312 43.6023 19.2937 50.3125C19.2718 50.2852 19.2772 50.2961 19.2062 50.225L14.1312 45.1063C20.978 38.243 28.9679 26.5508 32.6812 20.8687ZM32.4624 30.1437C32.0413 30.1437 31.5983 30.3078 31.2812 30.625L27.5187 34.4312C26.8788 35.0711 26.8788 36.1102 27.5187 36.75L27.6499 36.8812C28.2843 37.5211 29.3288 37.5211 29.9687 36.8812L33.7749 33.075C34.4147 32.4406 34.4093 31.3961 33.7749 30.7563L33.5999 30.625C33.2827 30.3078 32.8835 30.1437 32.4624 30.1437Z" fill="url(#paint0_linear_51_971)"/>
<defs>
<linearGradient id="paint0_linear_51_971" x1="35.7196" y1="1.3125" x2="35.7196" y2="68.6185" gradientUnits="userSpaceOnUse">
<stop stop-color="#FFC619"/>
<stop offset="0.520833" stop-color="#F69020"/>
<stop offset="1" stop-color="#EA422A"/>
</linearGradient>
</defs>
</svg>
