<svg width="83" height="83" viewBox="0 0 83 83" fill="none" xmlns="http://www.w3.org/2000/svg">
<path d="M56.855 3.47559L55.9213 4.87621L41.1888 26.0931L28.22 29.9318L28.1681 29.9837H28.1163C26.4757 30.5997 25.2048 31.6761 24.2256 33.0443L24.1738 33.0962V33.1481L12.9688 50.4225L12.5538 49.0737L1.66001 52.3418L0.10376 52.8606L0.570635 54.4168L8.04063 79.4725L8.50751 81.0806L10.1156 80.6137L19.4013 77.7606L21.0094 77.2937L20.4906 75.7375L19.5569 72.5731L32.5775 69.6681C36.5784 68.7603 40.2226 66.601 42.7969 63.2875L43.4194 62.5093L49.6963 66.9187L51.045 67.9043L51.9788 66.5037L82.0663 23.0325L83 21.6837L81.5994 20.6981L58.2038 4.46121L56.855 3.47559ZM57.685 8.09246L78.3831 22.5137L66.5038 39.6843C68.0276 34.8275 65.6932 29.0111 60.7456 25.5743C60.7327 25.5679 60.7586 25.5289 60.7456 25.5225C60.7327 25.5095 60.7067 25.5354 60.6938 25.5225C57.8082 23.4864 54.378 22.6369 51.2525 22.9287C49.4628 23.0973 47.7834 23.6679 46.3244 24.5887L57.685 8.09246ZM64.6363 17.9487C63.7284 17.9422 62.8531 18.3896 62.3019 19.1937C61.42 20.4776 61.7442 22.2025 63.0281 23.0843C64.312 23.9662 66.0888 23.642 66.9706 22.3581C67.8525 21.0742 67.5283 19.3493 66.2444 18.4675C65.7645 18.1368 65.1809 17.9552 64.6363 17.9487ZM51.6675 26.1968C53.963 25.9893 56.5243 26.6183 58.7744 28.22L58.8263 28.2718C63.5274 31.5075 64.9281 36.9933 62.5613 40.4106H62.5094C61.3163 42.2522 59.3256 43.2507 56.855 43.3675C56.9393 41.4675 56.2649 39.5741 54.78 38.18C54.767 38.167 54.7411 38.1929 54.7281 38.18C52.4651 35.9429 48.9376 35.5668 46.3244 37.2981C44.7422 34.4514 44.6255 31.3584 46.1688 29.1537C47.3489 27.4483 49.372 26.4043 51.6675 26.1968ZM38.2319 30.4506L30.295 42.9525L29.4131 44.405L30.8656 45.235L36.1569 48.3993L37.1425 49.0218L38.0763 48.2437L46.48 41.4481C46.908 41.3119 47.2581 41.0136 47.4656 40.6181L47.8806 40.3068C49.2034 39.2045 51.2266 39.2953 52.4456 40.5143V40.5662H52.4975C53.8592 41.8112 53.9824 43.7565 52.8088 45.2868L40.2031 61.2125C38.1281 63.8775 35.1583 65.6996 31.8513 66.4518L18.6231 69.4087L13.9544 53.7425L14.4731 53.535L15.0438 53.3275L15.355 52.8606L26.9231 35.0156C27.5781 34.0948 28.2524 33.5307 29.2056 33.1481C29.2445 33.1351 29.2705 33.1092 29.3094 33.0962L38.2319 30.4506ZM42.0188 30.6581C41.3768 33.5436 42.0252 36.6756 43.6788 39.425L36.8831 44.9756L34.03 43.2637L42.0188 30.6581ZM63.1838 44.5087L50.215 63.2875L45.4425 59.9156L55.4025 47.3618V47.31H55.4544C55.61 47.1089 55.7397 46.9014 55.8694 46.6875C58.5669 46.7653 61.1671 46.0714 63.1838 44.5087ZM10.3231 53.1718L16.8594 75.115L10.7381 76.9825L4.20188 55.0912L10.3231 53.1718Z" fill="url(#paint0_linear_51_1164)"/>
<defs>
<linearGradient id="paint0_linear_51_1164" x1="41.5519" y1="3.47559" x2="41.5519" y2="81.0806" gradientUnits="userSpaceOnUse">
<stop stop-color="#FFC619"/>
<stop offset="0.494792" stop-color="#F69020"/>
<stop offset="1" stop-color="#EA422A"/>
</linearGradient>
</defs>
</svg>
