<svg width="86" height="86" viewBox="0 0 86 86" fill="none" xmlns="http://www.w3.org/2000/svg">
<path d="M43.0001 3.45007C21.1786 3.45007 3.4502 21.1784 3.4502 43C3.4502 64.8215 21.1786 82.5499 43.0001 82.5499C64.8217 82.5499 82.55 64.8215 82.55 43C82.55 21.1784 64.8217 3.45007 43.0001 3.45007ZM43.0001 6.86992C47.4527 6.86992 51.7117 7.67865 55.6482 9.14757L47.4815 28.2019C46.0614 27.7703 44.5584 27.5301 43.0001 27.5301C34.4775 27.5301 27.5302 34.4774 27.5302 43C27.5302 44.5583 27.7704 46.0613 28.2021 47.4814L9.1477 55.648C7.67877 51.7116 6.87004 47.4526 6.87004 43C6.87004 23.0256 23.0257 6.86992 43.0001 6.86992ZM58.7791 10.5283C66.0499 14.0638 71.9363 19.9502 75.4718 27.221L56.441 35.3776C55.0598 32.9545 53.0456 30.9403 50.6225 29.5591L58.7791 10.5283ZM76.8525 30.3519C78.3215 34.2884 79.1302 38.5474 79.1302 43C79.1302 62.9744 62.9746 79.1301 43.0001 79.1301C38.5475 79.1301 34.2885 78.3213 30.3521 76.8524L38.5187 57.798C39.9388 58.2297 41.4418 58.4699 43.0001 58.4699C51.5227 58.4699 58.47 51.5226 58.47 43C58.47 41.4417 58.2298 39.9387 57.7982 38.5186L76.8525 30.3519ZM43.0001 30.9499C49.6754 30.9499 55.0502 36.3247 55.0502 43C55.0502 49.6753 49.6754 55.0501 43.0001 55.0501C36.3248 55.0501 30.95 49.6753 30.95 43C30.95 36.3247 36.3248 30.9499 43.0001 30.9499ZM43.0001 37.84C40.1501 37.84 37.8401 40.15 37.8401 43C37.8401 45.85 40.1501 48.16 43.0001 48.16C45.8502 48.16 48.1601 45.85 48.1601 43C48.1601 40.15 45.8502 37.84 43.0001 37.84ZM29.5593 50.6224C30.9404 53.0455 32.9546 55.0597 35.3777 56.4409L27.2211 75.4717C19.9503 71.9362 14.0639 66.0498 10.5284 58.779L29.5593 50.6224Z" fill="url(#paint0_linear_51_1144)"/>
<defs>
<linearGradient id="paint0_linear_51_1144" x1="43.0001" y1="3.45007" x2="43.0001" y2="82.5499" gradientUnits="userSpaceOnUse">
<stop stop-color="#FFC619"/>
<stop offset="0.5" stop-color="#F69020"/>
<stop offset="1" stop-color="#EA422A"/>
</linearGradient>
</defs>
</svg>
