<svg width="73" height="73" viewBox="0 0 73 73" fill="none" xmlns="http://www.w3.org/2000/svg">
<path d="M62.0045 2.93143C60.2252 2.93143 58.4458 3.6044 57.0998 4.95034L54.4479 7.60229C53.9346 8.11557 53.8776 8.93112 54.3167 9.51284L51.2142 12.6153C44.8895 18.9401 39.6141 20.8564 34.3159 22.6243C29.0234 24.3923 23.6168 26.0063 18.062 31.5668L4.66531 44.9578C2.34984 47.2732 2.34984 51.0715 4.66531 53.3927L12.1364 60.8638L19.6075 68.3292C21.9287 70.6503 25.727 70.6503 28.0424 68.3292L41.4334 54.9382C46.9939 49.3834 48.6079 43.9768 50.3702 38.6843C52.1381 33.3861 54.0544 28.1107 60.3848 21.786L63.4873 18.6835C64.0691 19.1226 64.8846 19.0656 65.3979 18.5523L68.0498 15.9003C70.7474 13.2028 70.7474 8.78854 68.0498 6.09096L66.9092 4.95034C65.5576 3.6044 63.7839 2.92573 62.0045 2.93143ZM62.0045 5.82862C63.0311 5.83432 64.0577 6.22784 64.8504 7.01487L65.9853 8.15549C67.5651 9.73526 67.5651 12.256 65.9853 13.8358L64.377 15.4441L60.9666 12.0336C60.9266 11.9937 60.881 11.9538 60.8354 11.9196L57.5504 8.63456L59.1587 7.01487C59.9514 6.22784 60.978 5.82862 62.0045 5.82862ZM36.5002 5.84002C35.696 5.84002 35.0402 6.49588 35.0402 7.30002C35.0402 8.10417 35.696 8.76002 36.5002 8.76002C37.3043 8.76002 37.9602 8.10417 37.9602 7.30002C37.9602 6.49588 37.3043 5.84002 36.5002 5.84002ZM45.2602 10.22C44.456 10.22 43.8002 10.8759 43.8002 11.68C43.8002 12.4842 44.456 13.14 45.2602 13.14C46.0643 13.14 46.7202 12.4842 46.7202 11.68C46.7202 10.8759 46.0643 10.22 45.2602 10.22ZM56.3698 11.5888L61.4114 16.6303L58.3146 19.7214C56.1246 21.9171 54.4479 24.0216 53.0677 26.069L46.9312 19.9324C48.9786 18.5523 51.083 16.8756 53.2787 14.6856L56.3698 11.5888ZM44.3876 21.5122L51.488 28.6126C50.239 30.8254 49.3265 32.9527 48.5737 34.9944L40.652 32.3482L38.0058 24.4265C40.0475 23.6737 42.1748 22.7612 44.3876 21.5122ZM35.2512 25.3903L38.1141 33.9678C38.2567 34.4013 38.5989 34.7435 39.0323 34.886L47.6098 37.749C47.6041 37.749 47.6041 37.7547 47.6041 37.7547C45.8191 43.1157 44.4731 47.7751 39.3745 52.8794L25.9836 66.2703C24.7802 67.468 22.8754 67.468 21.672 66.2703L6.72984 51.3281C5.53219 50.1248 5.53219 48.2199 6.72984 47.0166L20.1208 33.6257C25.2251 28.5271 29.8845 27.1811 35.2455 25.396C35.2455 25.396 35.2512 25.396 35.2512 25.3903ZM64.2402 26.28C63.436 26.28 62.7802 26.9359 62.7802 27.74C62.7802 28.5442 63.436 29.2 64.2402 29.2C65.0443 29.2 65.7002 28.5442 65.7002 27.74C65.7002 26.9359 65.0443 26.28 64.2402 26.28ZM68.6202 32.12C67.816 32.12 67.1602 32.7759 67.1602 33.58C67.1602 34.3842 67.816 35.04 68.6202 35.04C69.4243 35.04 70.0802 34.3842 70.0802 33.58C70.0802 32.7759 69.4243 32.12 68.6202 32.12ZM61.3202 35.04C60.516 35.04 59.8602 35.6959 59.8602 36.5C59.8602 37.3042 60.516 37.96 61.3202 37.96C62.1243 37.96 62.7802 37.3042 62.7802 36.5C62.7802 35.6959 62.1243 35.04 61.3202 35.04ZM33.5802 36.5C31.9662 36.5 30.6602 37.806 30.6602 39.42C30.6602 41.034 31.9662 42.34 33.5802 42.34C35.1941 42.34 36.5002 41.034 36.5002 39.42C36.5002 37.806 35.1941 36.5 33.5802 36.5ZM22.345 37.327C21.9629 37.3327 21.6036 37.4867 21.3298 37.7547L12.1364 46.9539C11.5661 47.5242 11.5661 48.4538 12.1364 49.0241L23.9761 60.8638C24.5464 61.4284 25.476 61.4284 26.0463 60.8638L35.2398 51.6646C35.8101 51.0943 35.8101 50.1704 35.2398 49.6001L23.4001 37.7547C23.1206 37.481 22.7385 37.327 22.345 37.327ZM22.3621 40.8572L32.143 50.6324L25.0084 57.7613L15.2332 47.9918L22.3621 40.8572Z" fill="url(#paint0_linear_51_1184)"/>
<defs>
<linearGradient id="paint0_linear_51_1184" x1="36.5044" y1="2.9314" x2="36.5044" y2="70.07" gradientUnits="userSpaceOnUse">
<stop stop-color="#FFC619"/>
<stop offset="0.484375" stop-color="#F69020"/>
<stop offset="1" stop-color="#EA422A"/>
</linearGradient>
</defs>
</svg>
