<svg width="86" height="86" viewBox="0 0 86 86" fill="none" xmlns="http://www.w3.org/2000/svg">
<path d="M42.9999 3.43994C21.1869 3.43994 3.43994 21.1869 3.43994 42.9999C3.43994 64.813 21.1869 82.5599 42.9999 82.5599C64.813 82.5599 82.5599 64.813 82.5599 42.9999C82.5599 35.0931 80.2201 27.7255 76.2074 21.5369L74.6721 23.0721L73.6912 24.0531C77.1105 29.5691 79.1199 36.046 79.1199 42.9999C79.1199 62.9175 62.9175 79.1199 42.9999 79.1199C23.0823 79.1199 6.87994 62.9175 6.87994 42.9999C6.87994 23.0823 23.0823 6.87994 42.9999 6.87994C51.4509 6.87994 59.2029 9.83394 65.3599 14.7174V18.2078L61.1708 22.3969C56.3198 18.1071 49.9692 15.4799 42.9999 15.4799C27.8261 15.4799 15.4799 27.8261 15.4799 42.9999C15.4799 58.1738 27.8261 70.5199 42.9999 70.5199C58.1738 70.5199 70.5199 58.1738 70.5199 42.9999C70.5199 37.2741 68.7578 31.9518 65.753 27.5435L63.2603 30.0361C65.6649 33.784 67.0799 38.2252 67.0799 42.9999C67.0799 56.2783 56.2783 67.0799 42.9999 67.0799C29.7215 67.0799 18.9199 56.2783 18.9199 42.9999C18.9199 29.7215 29.7215 18.9199 42.9999 18.9199C49.0222 18.9199 54.5155 21.1589 58.7386 24.8291L52.638 30.9297C49.9915 28.807 46.649 27.5199 42.9999 27.5199C34.4653 27.5199 27.5199 34.4653 27.5199 42.9999C27.5199 51.5346 34.4653 58.4799 42.9999 58.4799C51.5346 58.4799 58.4799 51.5346 58.4799 42.9999C58.4799 40.6143 57.9214 38.3643 56.9548 36.345L54.3311 38.9653C54.7817 40.2278 55.0399 41.5844 55.0399 42.9999C55.0399 49.6391 49.6391 55.0399 42.9999 55.0399C36.3607 55.0399 30.9599 49.6391 30.9599 42.9999C30.9599 36.3607 36.3607 30.9599 42.9999 30.9599C45.7003 30.9599 48.186 31.8647 50.1957 33.372L43.8868 39.6809C43.5977 39.6021 43.2996 39.5615 42.9999 39.5599C42.0876 39.5599 41.2126 39.9224 40.5675 40.5675C39.9224 41.2126 39.5599 42.0876 39.5599 42.9999C39.5599 43.9123 39.9224 44.7873 40.5675 45.4324C41.2126 46.0775 42.0876 46.4399 42.9999 46.4399C43.9123 46.4399 44.7873 46.0775 45.4324 45.4324C46.0775 44.7873 46.4399 43.9123 46.4399 42.9999C46.4398 42.6993 46.4003 42.4 46.3224 42.1097L67.7921 20.6399H72.2399L80.8399 12.0399H73.9599V5.15994L67.2983 11.8216C60.5867 6.57781 52.1578 3.43994 42.9999 3.43994Z" fill="url(#paint0_linear_51_1174)"/>
<defs>
<linearGradient id="paint0_linear_51_1174" x1="42.9999" y1="3.43994" x2="42.9999" y2="82.5599" gradientUnits="userSpaceOnUse">
<stop stop-color="#FFC619"/>
<stop offset="0.479167" stop-color="#F69020"/>
<stop offset="1" stop-color="#EA422A"/>
</linearGradient>
</defs>
</svg>
