<svg width="80" height="80" viewBox="0 0 80 80" fill="none" xmlns="http://www.w3.org/2000/svg">
<path d="M72.0999 3.89996C69.9374 3.80621 67.9124 5.24371 67.3499 7.39996L65.1499 15.95L59.1499 24.6L49.5999 26.75C47.9811 27.1187 46.4999 27.9562 45.3999 29.2L38.7999 36.55C37.9624 37.4812 37.3249 38.6375 36.9999 39.85L34.7499 48.35C34.1374 50.6312 35.4749 53.0187 37.7499 53.65C39.9999 54.275 42.3749 52.9375 43.0499 50.7L45.2999 43.25L48.8499 39.7C48.8186 40.6625 49.0561 41.3 48.8499 42.3C48.4124 44.4562 47.7499 46.25 47.7499 46.25L41.5499 58.2C41.2124 58.85 40.9499 59.5437 40.7999 60.25L38.5499 71.1C37.9311 74.0375 40.1999 76.9 43.1999 76.9H43.6999C45.9624 76.9 47.9499 75.2625 48.3999 73.05L50.4999 62.7L55.8499 53.1L60.1999 58.75L61.7499 72.65C62.0186 75.0562 64.0811 76.9 66.4999 76.9C69.3061 76.9 71.5374 74.3937 71.2499 71.6L69.7499 56.8C69.6561 55.9 69.3874 55.0187 68.9999 54.2L64.4499 44.6C64.7936 43.65 66.4999 38.5375 65.8999 32.8L73.3999 20.15C73.4624 20.0375 73.5124 19.925 73.5499 19.8L76.3999 9.84996C77.1249 7.32496 75.5999 4.68746 73.0499 4.04996C72.7436 3.97496 72.4061 3.91246 72.0999 3.89996ZM30.7999 4.39996C30.2124 4.41246 29.6124 4.53746 29.0499 4.79996C26.9436 5.77496 25.9374 8.24371 26.7999 10.4L29.5999 17.5L25.0499 25.6L17.3999 26.65L12.5999 21.15L12.8499 18.95C13.1374 22.65 16.2311 25.6 19.9999 25.6C23.9561 25.6 27.1999 22.3562 27.1999 18.4C27.1999 14.4437 23.9561 11.2 19.9999 11.2C16.8124 11.2 14.0874 13.3125 13.1499 16.2L13.5999 12.45C13.8936 9.94996 11.9624 7.68121 9.44989 7.54996H9.09989C6.78739 7.43121 4.74364 9.14371 4.49988 11.45L3.34988 22.2C3.18739 23.7125 3.63113 25.1875 4.54989 26.4L12.2999 36.65L9.49989 42.85C8.36239 45.3562 7.91239 48.1125 8.19989 50.85L10.4499 72.35C10.7124 74.85 12.8374 76.8 15.3499 76.8C18.2124 76.8 20.4874 74.3062 20.2499 71.45L18.6499 52.2L18.8499 52.05L23.8499 59.05L21.2999 71C20.6624 73.9562 22.9749 76.8 25.9999 76.8C28.1749 76.8 30.0561 75.3125 30.5999 73.2L33.9999 60.15C34.3999 58.6 34.1999 56.9687 33.4499 55.55L28.0999 45.4L30.6499 34L38.3499 21.1C39.1811 19.7062 39.3561 18.0062 38.7499 16.5L34.9499 7.14996C34.4874 5.99371 33.5811 5.12496 32.4999 4.69996C31.9624 4.48746 31.3874 4.38746 30.7999 4.39996ZM71.6499 7.09996C71.8374 7.07496 72.0499 7.09996 72.2499 7.14996C73.0811 7.35621 73.5374 8.17496 73.2999 8.99996L70.4499 18.9L62.9499 31.55C62.7499 31.8625 62.6561 32.2312 62.6999 32.6C63.4499 37.95 61.2499 44.2 61.2499 44.2C61.0936 44.6062 61.1124 45.0562 61.2999 45.45L66.0999 55.55C66.3311 56.0437 66.4936 56.6062 66.5499 57.15L68.0499 71.95C68.1499 72.9062 67.4624 73.7 66.4999 73.7C65.6811 73.7 65.0436 73.1125 64.9499 72.3L63.2999 57.9C63.2749 57.6125 63.1686 57.3375 62.9999 57.1L56.9499 49.25C56.6311 48.8062 56.1061 48.55 55.5561 48.5812C55.0124 48.6125 54.5186 48.9187 54.2499 49.4L47.5999 61.3C47.5249 61.4437 47.4749 61.5937 47.4499 61.75L45.2499 72.4C45.0999 73.1437 44.4561 73.7 43.6999 73.7H43.1999C42.1624 73.7 41.4374 72.8187 41.6499 71.8L43.9499 60.9C44.0436 60.4687 44.1999 60.0312 44.3999 59.65L50.6999 47.5C50.7374 47.4375 50.7686 47.3687 50.7999 47.3C50.7999 47.3 51.5124 45.3562 51.9999 42.95C52.4874 40.5437 52.9499 37.7312 51.7999 35.35C51.5749 34.8875 51.1436 34.5625 50.6374 34.475C50.1374 34.3875 49.6186 34.5437 49.2499 34.9L42.7999 41.2C42.6061 41.3937 42.4686 41.6375 42.3999 41.9L39.9999 49.8C39.8186 50.4062 39.2061 50.7187 38.5999 50.55C37.9874 50.3812 37.6811 49.7687 37.8499 49.15L40.0999 40.65C40.2936 39.925 40.6436 39.2625 41.1499 38.7L47.7999 31.35C47.7999 31.3312 47.7999 31.3187 47.7999 31.3C48.4561 30.5625 49.3311 30.0687 50.2999 29.85L60.4499 27.55C60.8561 27.4687 61.2124 27.2375 61.4499 26.9L67.9499 17.5C68.0686 17.3312 68.1499 17.15 68.1999 16.95L70.4499 8.19996C70.6061 7.59371 71.0811 7.18121 71.6499 7.09996ZM30.8999 7.59996C31.3749 7.58746 31.7999 7.86246 31.9999 8.34996L35.7499 17.7C35.9811 18.2812 35.9186 18.9125 35.5999 19.45L27.7499 32.6C27.6624 32.7375 27.5936 32.8875 27.5499 33.05L24.7999 45.25C24.7186 45.625 24.7686 46.0125 24.9499 46.35L30.6499 57.05C31.0249 57.7562 31.0999 58.575 30.8999 59.35L27.4999 72.4C27.3124 73.1125 26.7374 73.6 25.9999 73.6C24.9436 73.6 24.1749 72.6812 24.3999 71.65L27.1499 59.05C27.2436 58.6187 27.1499 58.1625 26.8999 57.8L20.4999 48.85C20.2499 48.5 19.8686 48.2687 19.4499 48.2062C19.0249 48.1375 18.5936 48.2437 18.2499 48.5L15.9999 50.25C15.5749 50.5875 15.3499 51.1125 15.3999 51.65L17.0999 71.7C17.1874 72.7375 16.3874 73.6 15.3499 73.6C14.4499 73.6 13.6936 72.95 13.5999 72.05L11.3999 50.5C11.1749 48.325 11.4936 46.1375 12.3999 44.15L15.5999 37.1C15.8436 36.5812 15.7811 35.9687 15.4499 35.5L7.09989 24.5C6.67489 23.9375 6.47488 23.2 6.54989 22.5L7.69989 11.8C7.76864 11.1562 8.25613 10.7187 8.89989 10.75H9.29989C10.0124 10.7875 10.4811 11.3937 10.3999 12.1L9.29989 21.45C9.24989 21.9062 9.39364 22.3625 9.69989 22.7L15.5999 29.4C15.9561 29.8187 16.5061 30.0312 17.0499 29.95L26.2999 28.65C26.7874 28.575 27.2124 28.2812 27.4499 27.85L32.7999 18.35C33.0311 17.9375 33.0686 17.4437 32.8999 17L29.7999 9.19996C29.5561 8.59371 29.8124 7.97496 30.3999 7.69996C30.5561 7.62496 30.7436 7.60621 30.8999 7.59996ZM51.9999 11.2C48.0436 11.2 44.7999 14.4437 44.7999 18.4C44.7999 22.3562 48.0436 25.6 51.9999 25.6C55.9561 25.6 59.1999 22.3562 59.1999 18.4C59.1999 14.4437 55.9561 11.2 51.9999 11.2ZM19.9999 14.4C22.2249 14.4 23.9999 16.175 23.9999 18.4C23.9999 20.625 22.2249 22.4 19.9999 22.4C17.7749 22.4 15.9999 20.625 15.9999 18.4C15.9999 16.175 17.7749 14.4 19.9999 14.4ZM51.9999 14.4C54.2249 14.4 55.9999 16.175 55.9999 18.4C55.9999 20.625 54.2249 22.4 51.9999 22.4C49.7749 22.4 47.9999 20.625 47.9999 18.4C47.9999 16.175 49.7749 14.4 51.9999 14.4Z" fill="url(#paint0_linear_51_1154)"/>
<defs>
<linearGradient id="paint0_linear_51_1154" x1="39.9487" y1="3.89563" x2="39.9487" y2="76.9" gradientUnits="userSpaceOnUse">
<stop stop-color="#FFC619"/>
<stop offset="0.489583" stop-color="#F69020"/>
<stop offset="1" stop-color="#EA422A"/>
</linearGradient>
</defs>
</svg>
