<svg width="80" height="80" viewBox="0 0 80 80" fill="none" xmlns="http://www.w3.org/2000/svg">
<path d="M40 1.59998C34.45 1.59998 31.0188 2.83123 30.1 3.19998C29.9375 3.24373 29.7875 3.31248 29.65 3.39998C29.6313 3.39998 29.6188 3.39998 29.6 3.39998C29.5688 3.41248 29.5312 3.43123 29.5 3.44998C29.4813 3.46873 29.4688 3.48123 29.45 3.49998C29.4188 3.51248 29.3813 3.53123 29.35 3.54998C29.3312 3.56873 29.3188 3.58123 29.3 3.59998C29.2438 3.64373 29.1938 3.69373 29.15 3.74998C29.1313 3.78123 29.1125 3.81873 29.1 3.84998C29.0812 3.86873 29.0688 3.88123 29.05 3.89998C29.0312 3.93123 29.0125 3.96873 29 3.99998L26.15 8.19998L18.85 10.55C18.75 10.575 18.6438 10.6062 18.55 10.65C17.1313 11.1125 15.4563 12.1625 13.6 14.05C11.575 16.1125 9.45 19.1125 7.9 23.3C6.7 26.5375 4.7625 31.6187 3.1 36.25C2.26875 38.5687 1.50625 40.7375 0.95 42.6C0.39375 44.4625 0 45.8625 0 47.1V70.4C0 71.2812 0.71875 72 1.6 72H12.8C13.6812 72 14.4 71.2812 14.4 70.4V48.05C14.4 48.0562 14.4 48.05 14.4 48C14.4125 47.925 14.4563 47.7375 14.55 47.5C14.7 47.1187 14.9563 46.625 15.25 46.05C15.8313 44.8937 16.6438 43.4562 17.45 42.1C17.525 41.9687 17.525 41.9812 17.6 41.85V76.8C17.6 77.6812 18.3188 78.4 19.2 78.4H60.8C61.6813 78.4 62.4 77.6812 62.4 76.8L62.3 44.95V44.9L62.35 41.75C62.4562 41.925 62.4438 41.9187 62.55 42.1C63.3563 43.4562 64.1688 44.8937 64.75 46.05C65.0438 46.625 65.3 47.1187 65.45 47.5C65.5625 47.7875 65.5938 48.025 65.6 48.05V70.4C65.6 71.2812 66.3187 72 67.2 72H78.4C79.2812 72 80 71.2812 80 70.4V47.1C80 45.8625 79.6063 44.4625 79.05 42.6C78.4938 40.7375 77.7313 38.5687 76.9 36.25C75.2375 31.6187 73.3 26.5375 72.1 23.3C70.55 19.1125 68.425 16.1125 66.4 14.05C64.525 12.1437 62.8312 11.1 61.4 10.65C61.3188 10.6125 61.2375 10.575 61.15 10.55L53.85 8.19998L51.05 4.04998C51.0188 3.99998 50.9875 3.94998 50.95 3.89998C50.9188 3.86248 50.8875 3.83123 50.85 3.79998C50.85 3.78123 50.85 3.76873 50.85 3.74998C50.7 3.58123 50.5125 3.44373 50.3 3.34998C50.3 3.34998 50.2562 3.29998 50.25 3.29998C50.1562 3.25623 50.05 3.22498 49.95 3.19998C49.1125 2.86248 45.6562 1.59998 40 1.59998ZM40 4.79998C43.8812 4.79998 46.3563 5.36873 47.7 5.79998C47.4688 6.61248 47.1063 7.66873 46.45 8.79998C45.225 10.9125 43.4062 12.8 40 12.8C36.5938 12.8 34.775 10.9125 33.55 8.79998C32.8937 7.66873 32.5312 6.61248 32.3 5.79998C33.6437 5.36873 36.1188 4.79998 40 4.79998ZM29.95 8.39998C30.2188 9.06873 30.3813 9.67498 30.8 10.4C31.7812 12.0937 33.325 13.9125 35.5 15L31.25 19.25L28.95 9.94998L29.95 8.39998ZM50.05 8.39998L51.05 9.94998L48.75 19.25L44.5 15C46.675 13.9125 48.2188 12.0937 49.2 10.4C49.6188 9.67498 49.7812 9.06873 50.05 8.39998ZM26.05 11.65L28.85 22.8C28.9875 23.3687 29.4188 23.8187 29.9813 23.975C30.5375 24.125 31.1438 23.9687 31.55 23.55L39.2 15.9C39.4688 15.9187 39.7188 16 40 16C40.2812 16 40.5312 15.9187 40.8 15.9L48.45 23.55C48.8563 23.9687 49.4625 24.125 50.0187 23.975C50.5812 23.8187 51.0125 23.3687 51.15 22.8L53.95 11.65L58.9 13.2C58.6875 14.2125 58.1938 16.4187 57.85 20.65C57.475 25.2812 57.525 30.9437 58.95 35.9C58.9625 35.95 58.9813 36 59 36.05C59.0063 36.0625 58.9938 36.0875 59 36.1C59.025 36.2562 59.075 36.4062 59.15 36.55C59.175 36.6312 59.175 36.7187 59.2 36.8L59.1 44.9L59.2 75.2H20.8V37C23.0938 32.6625 23.0125 26.6687 22.5 21.5C22.0438 16.9375 21.4 14.2812 21.15 13.2L26.05 11.65ZM18.2 14.45C18.5625 16.125 19.025 18.5375 19.35 21.8C19.7875 26.2062 19.6812 31.2875 18.5 34.55C18.2875 34.7062 18.1125 34.9125 18 35.15C18 35.15 16.35 37.7187 14.7 40.5C13.875 41.8937 13.0375 43.3312 12.4 44.6C12.0813 45.2375 11.8062 45.8125 11.6 46.35C11.3938 46.8875 11.2 47.3062 11.2 48V68.8H3.2V47.1C3.2 46.7875 3.46875 45.3187 4 43.55C4.53125 41.7812 5.28125 39.5875 6.1 37.3C7.74375 32.725 9.68125 27.7375 10.9 24.45C12.3 20.6812 14.1938 18.0375 15.9 16.3C16.7125 15.475 17.5375 14.8937 18.2 14.45ZM61.85 14.45C62.5063 14.8875 63.3 15.4875 64.1 16.3C65.8063 18.0375 67.7 20.6812 69.1 24.45C70.3187 27.7375 72.2562 32.725 73.9 37.3C74.7188 39.5875 75.4688 41.7812 76 43.55C76.5312 45.3187 76.8 46.7875 76.8 47.1V68.8H68.8V48C68.8 47.3062 68.6062 46.8875 68.4 46.35C68.1937 45.8125 67.9188 45.2375 67.6 44.6C66.9625 43.3312 66.125 41.8937 65.3 40.5C63.65 37.7187 62 35.15 62 35.15C61.9562 35.0625 61.9062 34.9812 61.85 34.9C60.6688 30.6187 60.6938 25.2875 61.05 20.9C61.2812 18.0812 61.5812 15.975 61.85 14.45Z" fill="url(#paint0_linear_51_1128)"/>
<defs>
<linearGradient id="paint0_linear_51_1128" x1="40" y1="1.59998" x2="40" y2="78.4" gradientUnits="userSpaceOnUse">
<stop stop-color="#FFC619"/>
<stop offset="0.489583" stop-color="#F69020"/>
<stop offset="1" stop-color="#EA422A"/>
</linearGradient>
</defs>
</svg>
