<svg width="38" height="38" viewBox="0 0 38 38" fill="none" xmlns="http://www.w3.org/2000/svg">
<path d="M9.12002 0C8.72313 0 8.31852 0.14541 8.03197 0.431953C7.74543 0.718496 7.60002 1.12311 7.60002 1.52V3.04H3.04002C2.64313 3.04 2.23852 3.18541 1.95197 3.47195C1.66543 3.7585 1.52002 4.16311 1.52002 4.56V10.64V34.96C1.52002 35.3569 1.66543 35.7615 1.95197 36.048C2.23852 36.3346 2.64313 36.48 3.04002 36.48H34.96C35.3569 36.48 35.7615 36.3346 36.0481 36.048C36.3346 35.7615 36.48 35.3569 36.48 34.96V10.64V4.56C36.48 4.16311 36.3346 3.7585 36.0481 3.47195C35.7615 3.18541 35.3569 3.04 34.96 3.04H30.4V1.52C30.4 1.12311 30.2546 0.718496 29.9681 0.431953C29.6815 0.14541 29.2769 0 28.88 0H27.36C26.9631 0 26.5585 0.14541 26.272 0.431953C25.9854 0.718496 25.84 1.12311 25.84 1.52V3.04H12.16V1.52C12.16 1.12311 12.0146 0.718496 11.7281 0.431953C11.4415 0.14541 11.0369 0 10.64 0H9.12002ZM9.12002 1.52H10.64V6.08H9.12002V1.52ZM27.36 1.52H28.88V3.67234C28.8665 3.75442 28.8665 3.83816 28.88 3.92023V6.08H27.36V1.52ZM3.04002 4.56H7.60002V6.08C7.60002 6.47689 7.74543 6.8815 8.03197 7.16805C8.31852 7.45459 8.72313 7.6 9.12002 7.6H10.64C11.0369 7.6 11.4415 7.45459 11.7281 7.16805C12.0146 6.8815 12.16 6.47689 12.16 6.08V4.56H25.84V6.08C25.84 6.47689 25.9854 6.8815 26.272 7.16805C26.5585 7.45459 26.9631 7.6 27.36 7.6H28.88C29.2769 7.6 29.6815 7.45459 29.9681 7.16805C30.2546 6.8815 30.4 6.47689 30.4 6.08V4.56H34.96V9.88H3.04002V4.56ZM3.04002 11.4H34.96V34.96H3.04002V11.4ZM13.6681 14.4296C13.6318 14.4305 13.5956 14.434 13.5598 14.44H8.36002C8.15846 14.44 7.96516 14.5201 7.82264 14.6626C7.68012 14.8051 7.60004 14.9984 7.60002 15.2V20.3923C7.58645 20.4744 7.58645 20.5582 7.60002 20.6402V25.7123C7.58645 25.7944 7.58645 25.8782 7.60002 25.9602V31.16C7.60004 31.3616 7.68012 31.5549 7.82264 31.6974C7.96516 31.8399 8.15846 31.92 8.36002 31.92H13.5524C13.6344 31.9336 13.7182 31.9336 13.8003 31.92H18.8724C18.9544 31.9336 19.0382 31.9336 19.1203 31.92H22.8H24.1924C24.2744 31.9336 24.3582 31.9336 24.4403 31.92H29.64C29.8416 31.92 30.0349 31.8399 30.1774 31.6974C30.3199 31.5549 30.4 31.3616 30.4 31.16V25.9677C30.4136 25.8856 30.4136 25.8018 30.4 25.7198V20.6477C30.4136 20.5656 30.4136 20.4818 30.4 20.3998V15.2C30.4 14.9984 30.3199 14.8051 30.1774 14.6626C30.0349 14.5201 29.8416 14.44 29.64 14.44H24.4477C24.3656 14.4264 24.2819 14.4264 24.1998 14.44H19.1277C19.0456 14.4264 18.9619 14.4264 18.8798 14.44H13.8077C13.7616 14.4323 13.7149 14.4288 13.6681 14.4296ZM9.12002 15.96H12.92V19.76H9.12002V15.96ZM14.44 15.96H18.24V19.76H14.44V15.96ZM19.76 15.96H23.56V19.76H19.76V15.96ZM25.08 15.96H28.88V19.76H25.08V15.96ZM9.12002 21.28H12.92V25.08H9.12002V21.28ZM14.44 21.28H18.24V25.08H14.44V21.28ZM19.76 21.28H23.56V25.08H19.76V21.28ZM25.08 21.28H28.88V25.08H25.08V21.28ZM9.12002 26.6H12.92V30.4H9.12002V26.6ZM14.44 26.6H18.24V30.4H14.44V26.6ZM19.76 26.6H23.56V30.4H22.8H19.76V26.6ZM25.08 26.6H28.88V30.4H25.08V26.6Z" fill="url(#paint0_linear_51_1277)"/>
<defs>
<linearGradient id="paint0_linear_51_1277" x1="19" y1="0" x2="19" y2="36.48" gradientUnits="userSpaceOnUse">
<stop stop-color="#FFC619"/>
<stop offset="0.473958" stop-color="#F69020"/>
<stop offset="1" stop-color="#EA422A"/>
</linearGradient>
</defs>
</svg>
