<svg width="41" height="41" viewBox="0 0 41 41" fill="none" xmlns="http://www.w3.org/2000/svg">
<path d="M30.284 2.45999C28.7427 2.48808 27.5044 2.93612 26.6613 3.74925C25.8182 4.56238 25.425 5.69134 25.3961 6.8755C25.3961 6.87603 25.3961 6.87657 25.3961 6.8771C25.3774 7.64871 25.5373 8.34492 25.7212 9.11128C25.5096 9.43052 25.3606 9.8179 25.4217 10.3301C25.4217 10.3306 25.4217 10.3311 25.4217 10.3317C25.4925 10.92 25.655 11.373 25.9246 11.717C26.0481 11.8746 26.229 11.8864 26.3874 11.9813C26.5548 12.5342 26.7827 13.059 27.1017 13.4787C27.3057 13.7472 27.5147 13.9869 27.7055 14.1818C27.7513 14.2286 27.807 14.2565 27.8465 14.2971C27.8498 14.7136 27.8513 15.1045 27.8208 15.5367C27.7219 15.7527 27.4183 16.0126 26.767 16.2815C26.3988 16.4335 25.9576 16.585 25.4906 16.7491C25.5153 16.5264 25.5338 16.2913 25.537 16.0284C25.537 16.0279 25.537 16.0274 25.537 16.0268C25.546 15.2528 25.42 14.4308 24.9861 13.7062C24.5838 13.0344 23.8474 12.5247 22.9281 12.3352C22.3441 11.7519 21.5232 11.48 20.5994 11.48C20.5946 11.4799 20.5898 11.4799 20.585 11.48C19.0437 11.5081 17.8054 11.9561 16.9622 12.7692C16.1191 13.5824 15.7276 14.7113 15.6986 15.8955C15.6986 15.896 15.6986 15.8966 15.6986 15.8971C15.6916 16.1873 15.7165 16.4661 15.7515 16.7427C15.1939 16.5529 14.6513 16.3815 14.2028 16.2126C13.5295 15.959 13.2121 15.6958 13.1329 15.5367C13.1029 15.1069 13.1038 14.7175 13.1073 14.3019C13.147 14.2614 13.2022 14.2334 13.2482 14.1866C13.4397 13.9919 13.6486 13.7535 13.8536 13.4851C14.174 13.0657 14.4028 12.5394 14.5711 11.9861C14.7307 11.891 14.9132 11.8802 15.0372 11.7218C15.3066 11.3777 15.4676 10.9241 15.5385 10.3365V10.3349C15.6001 9.82065 15.4503 9.42998 15.2358 9.10968C15.39 8.53199 15.5436 7.90243 15.5545 7.01323C15.5635 6.23915 15.4375 5.41558 15.0035 4.69097C14.6013 4.01923 13.8649 3.50951 12.9455 3.32003C12.3618 2.73688 11.542 2.4648 10.6185 2.4648C10.6131 2.46475 10.6078 2.46475 10.6024 2.4648C9.06115 2.49334 7.82425 2.94085 6.98131 3.75406C6.13837 4.56726 5.74548 5.69634 5.71607 6.88031C5.71607 6.88084 5.71607 6.88137 5.71607 6.88191C5.69742 7.65351 5.85734 8.34973 6.04119 9.11609C5.82955 9.43533 5.68059 9.8227 5.7417 10.3349C5.7417 10.3354 5.7417 10.3359 5.7417 10.3365C5.81255 10.9251 5.97447 11.3794 6.24459 11.7234C6.36866 11.8815 6.5514 11.8912 6.71064 11.9861C6.87817 12.5381 7.10312 13.0643 7.42174 13.4835C7.62573 13.752 7.8347 13.9901 8.02553 14.185C8.0713 14.2318 8.12695 14.2597 8.16646 14.3003C8.16983 14.719 8.17169 15.1099 8.14084 15.5448C8.05828 15.7244 7.86106 15.9282 7.3865 16.1534C6.88402 16.3917 6.17721 16.6132 5.431 16.8853C4.68478 17.1573 3.89081 17.4813 3.19041 18.0096C2.49001 18.5378 1.89024 19.3084 1.66092 20.3254C1.63167 20.4323 1.62438 20.544 1.63951 20.6538C1.65464 20.7636 1.69187 20.8692 1.74894 20.9642C1.80601 21.0592 1.88174 21.1416 1.97157 21.2066C2.06139 21.2715 2.16344 21.3175 2.27156 21.3419C2.37967 21.3663 2.4916 21.3685 2.60059 21.3484C2.70958 21.3283 2.81336 21.2863 2.90568 21.225C2.99799 21.1637 3.07692 21.0843 3.1377 20.9916C3.19847 20.8989 3.23983 20.7949 3.25928 20.6858C3.39854 20.0681 3.70395 19.6764 4.17697 19.3196C4.64999 18.9629 5.29862 18.6791 5.99314 18.426C6.68766 18.1728 7.41992 17.9517 8.08799 17.6348C8.75606 17.3178 9.42973 16.8701 9.72318 16.0813C9.74862 16.0127 9.76478 15.9411 9.77123 15.8683C9.83986 15.1055 9.81447 14.5694 9.81447 13.94C9.81437 13.7906 9.77344 13.644 9.6961 13.5161C9.61876 13.3883 9.50795 13.284 9.37564 13.2145C9.50931 13.2845 9.33518 13.1785 9.19787 13.0383C9.06057 12.8981 8.88963 12.7025 8.72861 12.4906C8.40659 12.0668 8.15446 11.5214 8.14084 11.3935C8.12309 11.227 8.0548 11.0699 7.94515 10.9434C7.83549 10.8168 7.68973 10.7269 7.52744 10.6856C7.50026 10.6476 7.4148 10.5092 7.37049 10.1411C7.35998 10.053 7.37366 10.0092 7.3865 9.98413C7.5167 9.8867 7.61499 9.75277 7.66889 9.59935C7.72279 9.44592 7.72986 9.27994 7.6892 9.12249C7.45119 8.20653 7.33885 7.63289 7.35607 6.92034C7.37781 6.05846 7.63243 5.4048 8.12002 4.93441C8.60568 4.46588 9.38024 4.1307 10.6185 4.1048H10.6201C11.447 4.1054 11.8702 4.37106 11.9237 4.46515C11.9859 4.57447 12.0725 4.66802 12.1766 4.73856C12.2807 4.8091 12.3997 4.85474 12.5243 4.87195C13.1225 4.95499 13.3843 5.17765 13.5974 5.53339C13.8104 5.88913 13.9211 6.42576 13.9145 6.99402C13.9032 7.9229 13.7546 8.62528 13.607 9.06804C13.5523 9.23187 13.5507 9.4088 13.6024 9.57359C13.6542 9.73838 13.7567 9.88262 13.8953 9.98573C13.908 10.0111 13.9216 10.0536 13.9113 10.1395C13.8669 10.5086 13.7813 10.6477 13.7543 10.6856C13.592 10.7269 13.4463 10.8168 13.3366 10.9434C13.227 11.0699 13.1587 11.227 13.1409 11.3935C13.1275 11.5193 12.8753 12.0651 12.5515 12.489C12.3897 12.7009 12.2172 12.8963 12.0791 13.0367C11.941 13.1771 11.7656 13.2839 11.8981 13.2145C11.7658 13.284 11.655 13.3883 11.5777 13.5161C11.5003 13.644 11.4594 13.7906 11.4593 13.94C11.4593 14.5679 11.4338 15.1055 11.5025 15.8683C11.509 15.9411 11.5251 16.0127 11.5506 16.0813C11.9067 17.0361 12.7954 17.4362 13.6246 17.7485C14.375 18.0312 15.1633 18.2527 15.8283 18.5157C15.7362 18.7545 15.6855 19.0253 15.7242 19.3501C15.7242 19.3506 15.7242 19.3511 15.7242 19.3517C15.7951 19.94 15.9559 20.393 16.2255 20.737C16.3497 20.8955 16.5322 20.9078 16.6916 21.0029C16.8591 21.5548 17.0857 22.0795 17.4043 22.4987C17.6083 22.7672 17.8156 23.0069 18.0065 23.2018C18.0522 23.2486 18.1079 23.2765 18.1474 23.3171C18.1508 23.7331 18.1521 24.1237 18.1218 24.5551C18.0193 24.7793 17.6901 25.0505 16.9991 25.3287C16.5219 25.5208 15.9358 25.7077 15.3254 25.9341C15.4422 25.4531 15.5459 24.9311 15.5545 24.2284C15.5635 23.4543 15.4375 22.6308 15.0035 21.9062C14.6008 21.2336 13.8634 20.7224 12.9423 20.5336C12.3587 19.9524 11.5401 19.68 10.6185 19.68C10.6137 19.68 10.6088 19.68 10.604 19.68C9.06271 19.7081 7.82443 20.1561 6.98131 20.9692C6.13818 21.7824 5.74501 22.9113 5.71607 24.0955C5.71607 24.096 5.71607 24.0966 5.71607 24.0971C5.69742 24.8687 5.85734 25.5649 6.04119 26.3313C5.82955 26.6505 5.68059 27.0379 5.7417 27.5501C5.7417 27.5506 5.7417 27.5511 5.7417 27.5517C5.81252 28.14 5.97501 28.593 6.24459 28.937C6.36808 29.0946 6.54902 29.1064 6.70744 29.2013C6.87479 29.7542 7.10274 30.279 7.42174 30.6987C7.62573 30.9672 7.8347 31.2069 8.02553 31.4018C8.0713 31.4486 8.12695 31.4765 8.16646 31.5171C8.16982 31.9347 8.17154 32.3262 8.14084 32.76C8.05844 32.9394 7.85943 33.1434 7.3849 33.3685C6.88249 33.6069 6.17726 33.83 5.431 34.1021C4.68473 34.3741 3.88927 34.6981 3.18881 35.2264C2.48834 35.7546 1.88865 36.5235 1.65932 37.5406C1.61139 37.7528 1.64969 37.9752 1.76578 38.1592C1.88187 38.3431 2.06625 38.4733 2.27838 38.5213C2.4905 38.5693 2.713 38.5311 2.89695 38.4151C3.08089 38.299 3.21122 38.1147 3.25928 37.9026C3.39853 37.2849 3.70389 36.8916 4.17697 36.5348C4.65006 36.1781 5.29696 35.896 5.99154 35.6428C6.68612 35.3896 7.41993 35.1686 8.08799 34.8516C8.75604 34.5346 9.4284 34.0855 9.72158 33.2965C9.74702 33.2279 9.76318 33.1563 9.76963 33.0835C9.83825 32.3207 9.81447 31.7846 9.81447 31.1552C9.81422 31.0056 9.77304 30.8589 9.69541 30.731C9.61778 30.6031 9.50665 30.4989 9.37404 30.4297C9.5077 30.4997 9.33357 30.3953 9.19627 30.2551C9.05897 30.1149 8.88802 29.9193 8.72701 29.7074C8.40498 29.2836 8.15286 28.7366 8.13924 28.6087C8.1214 28.4429 8.05344 28.2865 7.94442 28.1603C7.8354 28.0341 7.6905 27.9441 7.52904 27.9024C7.5021 27.8649 7.41498 27.7259 7.37049 27.3563C7.35998 27.2682 7.37366 27.2244 7.3865 27.1993C7.5167 27.1019 7.61499 26.968 7.66889 26.8145C7.72279 26.6611 7.72986 26.4951 7.6892 26.3377C7.45119 25.4217 7.33885 24.8481 7.35607 24.1355C7.37715 23.273 7.63048 22.6202 8.11842 22.1496C8.60484 21.6805 9.38177 21.3462 10.6233 21.3216C11.4464 21.3236 11.8697 21.5864 11.9221 21.6787C11.9843 21.7881 12.0709 21.8816 12.175 21.9522C12.2791 22.0227 12.3981 22.0683 12.5227 22.0855C13.1209 22.1686 13.3827 22.3928 13.5958 22.7486C13.8088 23.1043 13.9211 23.641 13.9145 24.2092C13.9032 25.1381 13.7546 25.8405 13.607 26.2832C13.5525 26.4467 13.5508 26.6232 13.6023 26.7876C13.6537 26.9521 13.7557 27.0961 13.8937 27.1993C13.9063 27.224 13.9203 27.2669 13.9097 27.3547C13.8651 27.725 13.7778 27.8652 13.7511 27.9024C13.5897 27.9441 13.4448 28.0341 13.3357 28.1603C13.2267 28.2865 13.1588 28.4429 13.1409 28.6087C13.1275 28.7345 12.8737 29.2803 12.5499 29.7042C12.3881 29.9161 12.2172 30.1115 12.0791 30.2519C11.941 30.3923 11.7656 30.4975 11.8981 30.4281C11.7656 30.4977 11.6546 30.6022 11.5772 30.7304C11.4999 30.8586 11.4591 31.0055 11.4593 31.1552C11.4593 31.7831 11.4322 32.3207 11.5009 33.0835C11.5116 33.2008 11.5475 33.3145 11.6061 33.4168C11.6647 33.519 11.7446 33.6075 11.8404 33.676C12.1842 34.2061 12.6714 34.5961 13.2066 34.85C13.8747 35.1669 14.6085 35.388 15.303 35.6412C15.9975 35.8943 16.6446 36.1781 17.1176 36.5348C17.5906 36.8916 17.896 37.2833 18.0353 37.901C18.0578 38.0072 18.1012 38.1078 18.163 38.1971C18.2247 38.2864 18.3035 38.3625 18.3949 38.4211C18.4863 38.4797 18.5884 38.5195 18.6953 38.5384C18.8022 38.5572 18.9118 38.5546 19.0177 38.5307C19.1236 38.5069 19.2237 38.4622 19.3122 38.3994C19.4007 38.3366 19.4759 38.2568 19.5333 38.1647C19.5908 38.0726 19.6294 37.97 19.6469 37.8629C19.6644 37.7557 19.6604 37.6462 19.6353 37.5406C19.4059 36.5236 18.8046 35.753 18.1042 35.2248C17.4038 34.6965 16.6098 34.3725 15.8636 34.1005C15.1174 33.8284 14.4121 33.6069 13.9097 33.3685C13.4211 33.1368 13.2074 32.9255 13.1313 32.7423C13.102 32.317 13.1022 31.9294 13.1057 31.5171C13.1455 31.4764 13.202 31.4488 13.2482 31.4018C13.4397 31.2071 13.6486 30.9687 13.8536 30.7003C14.174 30.2809 14.4028 29.7546 14.5711 29.2013C14.7305 29.1062 14.9133 29.0952 15.0372 28.937C15.2939 28.6091 15.45 28.1781 15.5256 27.6301C16.1934 27.3637 16.9177 27.1293 17.6109 26.8502C18.4574 26.5093 19.3448 26.0625 19.7041 25.0965C19.7296 25.0279 19.7457 24.9563 19.7522 24.8835C19.8208 24.1207 19.7954 23.5846 19.7954 22.9552C19.7953 22.8058 19.7544 22.6592 19.677 22.5313C19.5997 22.4035 19.4889 22.2992 19.3566 22.2297C19.4902 22.2997 19.3161 22.1953 19.1788 22.0551C19.0415 21.9149 18.8706 21.7193 18.7096 21.5074C18.3875 21.0836 18.1354 20.5366 18.1218 20.4087C18.104 20.2422 18.0357 20.0851 17.9261 19.9586C17.8164 19.832 17.6707 19.7421 17.5084 19.7008C17.4811 19.6626 17.3958 19.5246 17.3514 19.1563C17.3407 19.0661 17.3557 19.0221 17.369 18.9977C17.4989 18.9004 17.597 18.7667 17.6509 18.6136C17.7048 18.4606 17.7121 18.2949 17.6717 18.1377C17.4337 17.2217 17.3214 16.6481 17.3386 15.9355C17.3597 15.073 17.613 14.4202 18.101 13.9496C18.5874 13.4805 19.3643 13.1462 20.6058 13.1216C21.4271 13.1241 21.8535 13.3862 21.9063 13.4787C21.9683 13.5879 22.0546 13.6813 22.1584 13.7518C22.2623 13.8224 22.3809 13.8681 22.5053 13.8855C23.1035 13.9686 23.3653 14.1928 23.5783 14.5486C23.7913 14.9043 23.9036 15.4394 23.897 16.0076C23.8857 16.9365 23.7371 17.6405 23.5895 18.0832C23.5354 18.2465 23.5339 18.4226 23.5854 18.5867C23.6368 18.7508 23.7385 18.8946 23.8762 18.9977C23.8889 19.0222 23.9029 19.0646 23.8922 19.1531C23.8922 19.1536 23.8922 19.1541 23.8922 19.1547C23.8477 19.525 23.7603 19.6636 23.7337 19.7008C23.5722 19.7425 23.4273 19.8325 23.3183 19.9587C23.2093 20.0849 23.1413 20.2413 23.1235 20.4071C23.1101 20.5329 22.8562 21.0803 22.5325 21.5042C22.3706 21.7161 22.1997 21.9115 22.0616 22.0519C21.9235 22.1923 21.7481 22.2975 21.8806 22.2281C21.7483 22.2976 21.6375 22.4019 21.5602 22.5297C21.4829 22.6576 21.4419 22.8041 21.4418 22.9536C21.4418 23.5815 21.4147 24.1191 21.4835 24.8819C21.4904 24.9548 21.5071 25.0264 21.5331 25.0949C21.8909 26.0553 22.7856 26.4539 23.6199 26.7669C24.2274 26.9948 24.8445 27.1874 25.4185 27.3899C25.4203 27.4436 25.4149 27.4934 25.4217 27.5501C25.4217 27.5506 25.4217 27.5511 25.4217 27.5517C25.4925 28.14 25.655 28.593 25.9246 28.937C26.0481 29.0946 26.229 29.1064 26.3874 29.2013C26.5548 29.7542 26.7827 30.279 27.1017 30.6987C27.3057 30.9672 27.5147 31.2069 27.7055 31.4018C27.7513 31.4486 27.807 31.4765 27.8465 31.5171C27.8498 31.9347 27.8515 32.3262 27.8208 32.76C27.7384 32.9394 27.5394 33.1434 27.0649 33.3685C26.5625 33.6069 25.8573 33.83 25.111 34.1021C24.3647 34.3741 23.5693 34.6981 22.8688 35.2264C22.1683 35.7546 21.5686 36.5235 21.3393 37.5406C21.2913 37.7528 21.3296 37.9753 21.4457 38.1593C21.5617 38.3433 21.7462 38.4736 21.9583 38.5216C22.1705 38.5696 22.393 38.5313 22.577 38.4152C22.761 38.2991 22.8913 38.1147 22.9393 37.9026C23.0785 37.285 23.3839 36.8916 23.857 36.5348C24.3301 36.1781 24.977 35.896 25.6715 35.6428C26.3661 35.3896 27.0999 35.1686 27.768 34.8516C28.436 34.5346 29.1084 34.0855 29.4016 33.2965C29.427 33.2279 29.4432 33.1563 29.4496 33.0835C29.5183 32.3207 29.4945 31.7846 29.4945 31.1552C29.4942 31.0056 29.453 30.8589 29.3754 30.731C29.2978 30.6031 29.1866 30.4989 29.054 30.4297C29.1877 30.4997 29.0136 30.3953 28.8763 30.2551C28.739 30.1149 28.568 29.9193 28.407 29.7074C28.085 29.2836 27.8329 28.7366 27.8192 28.6087C27.8014 28.4429 27.7334 28.2865 27.6244 28.1603C27.5154 28.0341 27.3705 27.9441 27.209 27.9024C27.1821 27.8649 27.095 27.7259 27.0505 27.3563C27.0501 27.3527 27.0508 27.3517 27.0505 27.3483C27.1031 27.2747 27.1431 27.193 27.169 27.1064C27.2648 27.0058 27.3334 26.8824 27.3684 26.7479C27.4034 26.6135 27.4037 26.4723 27.3692 26.3377C27.1312 25.4217 27.0189 24.8481 27.0361 24.1355C27.0572 23.273 27.3105 22.6202 27.7984 22.1496C28.2848 21.6805 29.0618 21.3462 30.3033 21.3216C31.1264 21.3236 31.5497 21.5864 31.6021 21.6787C31.6643 21.7881 31.7509 21.8816 31.855 21.9522C31.9591 22.0227 32.0781 22.0683 32.2027 22.0855C32.8009 22.1686 33.0627 22.3928 33.2758 22.7486C33.4888 23.1043 33.6011 23.641 33.5945 24.2092C33.5832 25.1381 33.4346 25.8405 33.287 26.2832C33.2325 26.4467 33.2308 26.6232 33.2823 26.7876C33.3337 26.9521 33.4357 27.0961 33.5737 27.1993C33.5864 27.2238 33.6003 27.2662 33.5897 27.3547C33.5451 27.725 33.4578 27.8652 33.4311 27.9024C33.2697 27.9441 33.1248 28.0341 33.0157 28.1603C32.9067 28.2865 32.8388 28.4429 32.8209 28.6087C32.8075 28.7345 32.5537 29.2803 32.2299 29.7042C32.0681 29.9161 31.8972 30.1115 31.7591 30.2519C31.621 30.3923 31.4456 30.4975 31.5781 30.4281C31.4456 30.4977 31.3346 30.6022 31.2572 30.7304C31.1799 30.8586 31.1391 31.0055 31.1393 31.1552C31.1393 31.7831 31.1122 32.3207 31.1809 33.0835C31.1916 33.2008 31.2275 33.3145 31.2861 33.4168C31.3447 33.519 31.4246 33.6075 31.5204 33.676C31.8642 34.2061 32.3514 34.5961 32.8866 34.85C33.5547 35.1669 34.2885 35.388 34.983 35.6412C35.6775 35.8943 36.3246 36.1781 36.7976 36.5348C37.2706 36.8916 37.576 37.2833 37.7153 37.901C37.7378 38.0072 37.7812 38.1078 37.843 38.1971C37.9047 38.2864 37.9835 38.3625 38.0749 38.4211C38.1663 38.4797 38.2684 38.5195 38.3753 38.5384C38.4822 38.5572 38.5918 38.5546 38.6977 38.5307C38.8036 38.5069 38.9037 38.4622 38.9922 38.3994C39.0807 38.3366 39.1559 38.2568 39.2133 38.1647C39.2708 38.0726 39.3094 37.97 39.3269 37.8629C39.3444 37.7557 39.3404 37.6462 39.3153 37.5406C39.0859 36.5236 38.4846 35.753 37.7842 35.2248C37.0838 34.6965 36.2898 34.3725 35.5436 34.1005C34.7974 33.8284 34.0921 33.6069 33.5897 33.3685C33.1011 33.1368 32.8874 32.9255 32.8113 32.7423C32.782 32.317 32.7822 31.9294 32.7857 31.5171C32.8255 31.4764 32.882 31.4488 32.9282 31.4018C33.1197 31.2071 33.3286 30.9687 33.5336 30.7003C33.854 30.2809 34.0828 29.7546 34.2511 29.2013C34.4105 29.1062 34.5933 29.0952 34.7172 28.937C34.9866 28.5929 35.1476 28.1393 35.2185 27.5517V27.5501C35.2801 27.0359 35.1302 26.6452 34.9158 26.3249C35.07 25.7472 35.2236 25.1175 35.2345 24.2284C35.2435 23.4543 35.1175 22.6308 34.6835 21.9062C34.2808 21.2335 33.5434 20.7224 32.6223 20.5336C32.0387 19.9524 31.2201 19.68 30.2985 19.68C30.2937 19.68 30.2888 19.68 30.284 19.68C28.7427 19.7081 27.5044 20.1561 26.6613 20.9692C25.8182 21.7824 25.425 22.9113 25.3961 24.0955C25.3961 24.096 25.3961 24.0966 25.3961 24.0971C25.3827 24.6492 25.4722 25.1689 25.5851 25.6971C25.0843 25.5301 24.6016 25.3836 24.1949 25.231C23.5139 24.9756 23.1924 24.7096 23.1138 24.5503C23.084 24.1216 23.0847 23.7316 23.0882 23.3171C23.1281 23.2764 23.1845 23.2488 23.2308 23.2018C23.4222 23.0071 23.6312 22.7671 23.8362 22.4987C24.1564 22.0794 24.3853 21.5545 24.5537 21.0013C24.713 20.9062 24.8959 20.8952 25.0197 20.737C25.2894 20.3926 25.4502 19.9385 25.521 19.3501C25.5595 19.0312 25.511 18.7645 25.4217 18.5285C26.0624 18.285 26.7432 18.0642 27.3916 17.7966C28.2064 17.4602 29.054 17.011 29.4016 16.0765C29.427 16.0079 29.4432 15.9363 29.4496 15.8635C29.5183 15.1007 29.4945 14.5646 29.4945 13.9352C29.4942 13.7856 29.453 13.6389 29.3754 13.511C29.2978 13.3831 29.1866 13.2789 29.054 13.2097C29.1877 13.2797 29.0136 13.1753 28.8763 13.0351C28.739 12.8949 28.568 12.6993 28.407 12.4874C28.085 12.0636 27.8329 11.5166 27.8192 11.3887C27.8014 11.2229 27.7334 11.0665 27.6244 10.9403C27.5154 10.8141 27.3705 10.7241 27.209 10.6824C27.1821 10.6449 27.095 10.5059 27.0505 10.1363C27.04 10.0482 27.0537 10.0044 27.0665 9.97933C27.1967 9.8819 27.295 9.74796 27.3489 9.59454C27.4028 9.44112 27.4099 9.27514 27.3692 9.11769C27.1312 8.20172 27.0189 7.62809 27.0361 6.91554C27.0572 6.05298 27.3105 5.40018 27.7984 4.9296C28.2848 4.46049 29.0618 4.12622 30.3033 4.10159C31.1264 4.10357 31.5497 4.36637 31.6021 4.45874C31.6643 4.56807 31.7509 4.66162 31.855 4.73216C31.9591 4.80269 32.0781 4.84833 32.2027 4.86554C32.8009 4.94858 33.0627 5.17284 33.2758 5.52859C33.4888 5.88433 33.6011 6.42096 33.5945 6.98921C33.5832 7.9181 33.4346 8.62047 33.287 9.06323C33.2325 9.22669 33.2308 9.40316 33.2823 9.56761C33.3337 9.73205 33.4357 9.87611 33.5737 9.97933C33.5864 10.0038 33.6003 10.0462 33.5897 10.1347C33.5451 10.5051 33.4578 10.6452 33.4311 10.6824C33.2697 10.7241 33.1248 10.8141 33.0157 10.9403C32.9067 11.0665 32.8388 11.2229 32.8209 11.3887C32.8075 11.5145 32.5537 12.0603 32.2299 12.4842C32.0681 12.6961 31.8972 12.8915 31.7591 13.0319C31.621 13.1723 31.4456 13.2775 31.5781 13.2081C31.4456 13.2777 31.3346 13.3822 31.2572 13.5104C31.1799 13.6386 31.1391 13.7855 31.1393 13.9352C31.1393 14.5631 31.1122 15.1007 31.1809 15.8635C31.1916 15.9808 31.2275 16.0945 31.2861 16.1968C31.3447 16.299 31.4246 16.3875 31.5204 16.456C31.8642 16.9861 32.3514 17.3761 32.8866 17.63C33.5547 17.9469 34.2885 18.168 34.983 18.4212C35.6775 18.6743 36.3246 18.9581 36.7976 19.3148C37.2706 19.6716 37.576 20.0633 37.7153 20.681C37.7378 20.7872 37.7812 20.8878 37.843 20.9771C37.9047 21.0664 37.9835 21.1425 38.0749 21.2011C38.1663 21.2597 38.2684 21.2995 38.3753 21.3184C38.4822 21.3372 38.5918 21.3346 38.6977 21.3107C38.8036 21.2869 38.9037 21.2423 38.9922 21.1794C39.0807 21.1166 39.1559 21.0368 39.2133 20.9447C39.2708 20.8526 39.3094 20.75 39.3269 20.6429C39.3444 20.5357 39.3404 20.4262 39.3153 20.3206C39.0859 19.3036 38.4846 18.533 37.7842 18.0048C37.0838 17.4765 36.2898 17.1525 35.5436 16.8805C34.7974 16.6084 34.0921 16.3869 33.5897 16.1485C33.1011 15.9168 32.8874 15.7055 32.8113 15.5223C32.782 15.097 32.7822 14.7094 32.7857 14.2971C32.8255 14.2564 32.882 14.2288 32.9282 14.1818C33.1197 13.9871 33.3286 13.7487 33.5336 13.4803C33.854 13.0609 34.0828 12.5346 34.2511 11.9813C34.4105 11.8862 34.5933 11.8752 34.7172 11.717C34.9866 11.3729 35.1476 10.9193 35.2185 10.3317V10.3301C35.2801 9.81594 35.1302 9.42515 34.9158 9.10488C35.07 8.52721 35.2236 7.89754 35.2345 7.00843C35.2435 6.23435 35.1175 5.41077 34.6835 4.68616C34.2808 4.01358 33.5434 3.50245 32.6223 3.31363C32.0387 2.73238 31.2201 2.45999 30.2985 2.45999C30.2937 2.45995 30.2888 2.45995 30.284 2.45999Z" fill="url(#paint0_linear_51_1239)"/>
<defs>
<linearGradient id="paint0_linear_51_1239" x1="20.4847" y1="2.45996" x2="20.4847" y2="38.5508" gradientUnits="userSpaceOnUse">
<stop stop-color="#FFC619"/>
<stop offset="0.479167" stop-color="#F69020"/>
<stop offset="1" stop-color="#EA422A"/>
</linearGradient>
</defs>
</svg>
