<svg width="41" height="41" viewBox="0 0 41 41" fill="none" xmlns="http://www.w3.org/2000/svg">
<path d="M18.8601 1.63989V4.99036C10.122 5.81822 3.27051 13.1875 3.27051 22.1399C3.27051 31.6456 10.9944 39.3695 20.5001 39.3695C30.0058 39.3695 37.7297 31.6456 37.7297 22.1399C37.7297 13.1875 30.8782 5.81822 22.1401 4.99036V1.63989H18.8601ZM34.4754 2.45989L32.1563 4.77896L33.2149 5.83759L31.9801 7.07399L33.3398 8.43372L34.5747 7.19731L35.6349 8.25755L37.9539 5.93849L34.4754 2.45989ZM20.5001 6.5695C29.1093 6.5695 36.0705 13.5307 36.0705 22.1399C36.0705 30.7491 29.1093 37.7103 20.5001 37.7103C11.8909 37.7103 4.92973 30.7491 4.92973 22.1399C4.92973 13.5307 11.8909 6.5695 20.5001 6.5695ZM20.4873 9.81907C20.2675 9.82242 20.0581 9.91285 19.905 10.0705C19.7518 10.2281 19.6675 10.4401 19.6705 10.6599V19.8256C19.1935 19.9965 18.7809 20.3105 18.4891 20.7247C18.1972 21.139 18.0405 21.6332 18.0401 22.1399C18.0408 22.6463 18.1977 23.1402 18.4895 23.5541C18.7813 23.968 19.1938 24.2818 19.6705 24.4526V26.2399C19.6705 26.4599 19.7579 26.6709 19.9135 26.8265C20.0691 26.9821 20.2801 27.0695 20.5001 27.0695C20.7201 27.0695 20.9312 26.9821 21.0867 26.8265C21.2423 26.6709 21.3297 26.4599 21.3297 26.2399V24.4542C21.8067 24.2833 22.2194 23.9693 22.5112 23.555C22.803 23.1408 22.9598 22.6466 22.9601 22.1399C22.9595 21.6335 22.8025 21.1396 22.5107 20.7257C22.2189 20.3118 21.8065 19.998 21.3297 19.8272V10.6599C21.3313 10.5489 21.3105 10.4388 21.2687 10.336C21.2269 10.2331 21.1648 10.1398 21.0863 10.0614C21.0077 9.98297 20.9142 9.92112 20.8114 9.8795C20.7085 9.83788 20.5983 9.81734 20.4873 9.81907Z" fill="url(#paint0_linear_51_1296)"/>
<defs>
<linearGradient id="paint0_linear_51_1296" x1="20.6122" y1="1.63989" x2="20.6122" y2="39.3695" gradientUnits="userSpaceOnUse">
<stop stop-color="#FFC619"/>
<stop offset="0.494792" stop-color="#F69020"/>
<stop offset="1" stop-color="#EA422A"/>
</linearGradient>
</defs>
</svg>
