<svg width="41" height="41" viewBox="0 0 41 41" fill="none" xmlns="http://www.w3.org/2000/svg">
<path d="M12.5162 1.7041C7.65537 3.74237 3.74237 7.65537 1.7041 12.5162L3.21598 13.1505C5.08583 8.69123 8.69123 5.08583 13.1505 3.21598L12.5162 1.7041ZM20.5 3.28004C10.9994 3.28004 3.28004 10.9994 3.28004 20.5C3.28004 30.0007 10.9994 37.72 20.5 37.72C30.0007 37.72 37.72 30.0007 37.72 20.5C37.72 10.9994 30.0007 3.28004 20.5 3.28004ZM20.5 4.92004C29.1143 4.92004 36.08 11.8857 36.08 20.5C36.08 29.1143 29.1143 36.08 20.5 36.08C11.8857 36.08 4.92004 29.1143 4.92004 20.5C4.92004 11.8857 11.8857 4.92004 20.5 4.92004ZM19.68 8.20004V19.0827C19.4312 19.2263 19.2244 19.4329 19.0805 19.6817C18.9366 19.9304 18.8605 20.2126 18.86 20.5C18.86 20.935 19.0328 21.3521 19.3404 21.6597C19.6479 21.9673 20.0651 22.14 20.5 22.14C20.6434 22.14 20.786 22.1211 20.9245 22.084L25.6603 26.8198L26.8198 25.6603L22.0824 20.9228C22.1199 20.785 22.1393 20.6429 22.14 20.5C22.1398 20.2124 22.0639 19.9298 21.92 19.6808C21.7761 19.4317 21.5692 19.2249 21.32 19.0811V8.20004H19.68ZM37.7889 27.84C35.84 32.3151 32.3059 35.9155 27.8496 37.7841L28.4838 39.296C33.3476 37.2565 37.1811 33.3401 39.2912 28.495L37.7889 27.84Z" fill="url(#paint0_linear_51_1258)"/>
<defs>
<linearGradient id="paint0_linear_51_1258" x1="20.4976" y1="1.7041" x2="20.4976" y2="39.296" gradientUnits="userSpaceOnUse">
<stop stop-color="#FFC619"/>
<stop offset="0.484375" stop-color="#F69020"/>
<stop offset="1" stop-color="#EA422A"/>
</linearGradient>
</defs>
</svg>
